<?xml version="1.0" encoding="utf-8"?>
<!-- Generator: Adobe Illustrator 23.0.3, SVG Export Plug-In . SVG Version: 6.00 Build 0)  -->
<svg version="1.1" id="Layer_1" xmlns="http://www.w3.org/2000/svg" xmlns:xlink="http://www.w3.org/1999/xlink" x="0px" y="0px"
	 viewBox="0 0 240 138" style="enable-background:new 0 0 240 138;" xml:space="preserve">
<style type="text/css">
	.st0{fill:url(#SVGID_1_);}
	.st1{fill:url(#SVGID_2_);}
	.st2{fill:url(#SVGID_3_);}
	.st3{fill:url(#SVGID_4_);}
	.st4{fill:url(#SVGID_5_);}
	.st5{fill:url(#SVGID_6_);}
	.st6{fill:url(#SVGID_7_);}
	.st7{fill:url(#SVGID_8_);}
	.st8{fill:url(#SVGID_9_);}
	.st9{fill:url(#SVGID_10_);}
	.st10{fill:url(#SVGID_11_);}
	.st11{fill:url(#SVGID_12_);}
	.st12{fill:url(#SVGID_13_);}
	.st13{fill:url(#SVGID_14_);}
	.st14{fill:url(#SVGID_15_);}
	.st15{fill:url(#SVGID_16_);}
	.st16{fill:url(#SVGID_17_);}
	.st17{fill:url(#SVGID_18_);}
	.st18{fill:url(#SVGID_19_);}
	.st19{fill:url(#SVGID_20_);}
	.st20{fill:url(#SVGID_21_);}
	.st21{fill:url(#SVGID_22_);}
	.st22{fill:none;stroke:url(#SVGID_23_);stroke-miterlimit:10;}
	.st23{fill:url(#SVGID_24_);}
	.st24{fill:url(#SVGID_25_);}
	.st25{fill:url(#SVGID_30_);}
	.st26{fill:url(#SVGID_31_);}
	.st27{fill:url(#SVGID_32_);}
	.st28{fill:url(#SVGID_33_);}
	.st29{fill:url(#SVGID_34_);}
	.st30{fill:url(#SVGID_35_);}
	.st31{fill:url(#SVGID_36_);}
	.st32{fill:url(#SVGID_37_);}
	.st33{fill:url(#SVGID_38_);}
	.st34{fill:url(#SVGID_39_);}
	.st35{fill:url(#SVGID_40_);}
	.st36{fill:url(#SVGID_41_);}
	.st37{fill:url(#SVGID_42_);}
	.st38{fill:url(#SVGID_43_);}
	.st39{fill:url(#SVGID_44_);}
	.st40{fill:url(#SVGID_45_);}
	.st41{fill:url(#SVGID_46_);}
	.st42{fill:url(#SVGID_47_);}
	.st43{fill:url(#SVGID_48_);}
	.st44{fill:url(#SVGID_49_);}
	.st45{fill:url(#SVGID_50_);}
	.st46{fill:url(#SVGID_51_);}
	.st47{fill:url(#SVGID_52_);}
	.st48{fill:url(#SVGID_53_);}
	.st49{fill:url(#SVGID_54_);}
	.st50{fill:url(#SVGID_55_);}
	.st51{fill:url(#SVGID_56_);}
	.st52{fill:url(#SVGID_57_);}
	.st53{fill:url(#SVGID_58_);}
	.st54{fill:url(#SVGID_59_);}
	.st55{fill:url(#SVGID_60_);}
	.st56{fill:url(#SVGID_61_);}
	.st57{fill:url(#SVGID_62_);}
	.st58{fill:url(#SVGID_63_);}
	.st59{fill:url(#SVGID_64_);}
	.st60{fill:url(#SVGID_65_);}
	.st61{fill:url(#SVGID_66_);}
	.st62{fill:url(#SVGID_67_);}
	.st63{fill:url(#SVGID_68_);}
	.st64{fill:url(#SVGID_69_);}
	.st65{fill:url(#SVGID_70_);}
	.st66{fill:url(#SVGID_71_);}
	.st67{fill:url(#SVGID_72_);}
	.st68{fill:url(#SVGID_73_);}
	.st69{fill:url(#SVGID_74_);}
	.st70{fill:url(#SVGID_75_);}
	.st71{fill:url(#SVGID_76_);}
	.st72{fill:url(#SVGID_77_);}
	.st73{fill:url(#SVGID_78_);}
	.st74{fill:url(#SVGID_79_);}
	.st75{fill:url(#SVGID_80_);}
	.st76{fill:url(#SVGID_81_);}
	.st77{fill:url(#SVGID_82_);}
	.st78{fill:url(#SVGID_83_);}
	.st79{fill:url(#SVGID_84_);}
	.st80{fill:url(#SVGID_85_);}
	.st81{fill:url(#SVGID_86_);}
	.st82{fill:url(#SVGID_87_);}
	.st83{fill:none;stroke:url(#SVGID_88_);stroke-width:0.4015;stroke-miterlimit:10;}
	.st84{fill:url(#SVGID_89_);}
	.st85{fill:url(#SVGID_90_);}
	.st86{fill:url(#SVGID_95_);}
	.st87{fill:url(#SVGID_96_);}
	.st88{fill:url(#SVGID_97_);}
	.st89{fill:url(#SVGID_98_);}
	.st90{fill:url(#SVGID_99_);}
	.st91{fill:url(#SVGID_100_);}
	.st92{fill:url(#SVGID_101_);}
	.st93{fill:url(#SVGID_102_);}
	.st94{fill:url(#SVGID_103_);}
	.st95{fill:url(#SVGID_104_);}
	.st96{fill:url(#SVGID_105_);}
	.st97{fill:url(#SVGID_106_);}
	.st98{fill:url(#SVGID_107_);}
	.st99{fill:url(#SVGID_108_);}
	.st100{fill:url(#SVGID_109_);}
	.st101{fill:url(#SVGID_110_);}
	.st102{fill:url(#SVGID_111_);}
	.st103{fill:url(#SVGID_112_);}
	.st104{fill:url(#SVGID_113_);}
	.st105{fill:url(#SVGID_114_);}
	.st106{fill:url(#SVGID_115_);}
	.st107{fill:url(#SVGID_116_);}
	.st108{fill:url(#SVGID_117_);}
	.st109{fill:url(#SVGID_118_);}
	.st110{fill:url(#SVGID_119_);}
	.st111{fill:url(#SVGID_120_);}
	.st112{fill:url(#SVGID_121_);}
	.st113{fill:url(#SVGID_122_);}
	.st114{fill:url(#SVGID_123_);}
	.st115{fill:url(#SVGID_124_);}
	.st116{fill:url(#SVGID_125_);}
	.st117{fill:url(#SVGID_126_);}
	.st118{fill:url(#SVGID_127_);}
	.st119{fill:url(#SVGID_128_);}
	.st120{fill:url(#SVGID_129_);}
	.st121{fill:url(#SVGID_130_);}
</style>
<g>
	<linearGradient id="SVGID_1_" gradientUnits="userSpaceOnUse" x1="19.7778" y1="70.8028" x2="19.3678" y2="105.9263">
		<stop  offset="2.717173e-07" style="stop-color:#01827F"/>
		<stop  offset="1" style="stop-color:#004B49"/>
	</linearGradient>
	<path class="st0" d="M6.8,95.2c0.2-0.8,0.5-1.7,0.9-2.4c1.1-2.5,2.7-4.5,4.7-5.9c2-1.4,4.4-2.1,7.1-2.1c2.8,0,5.1,0.7,7.2,2.1
		c2,1.4,3.6,3.4,4.7,5.9c0.2,0.5,0.4,1.1,0.6,1.7c2.2,2.2,4.5,2.7,6.1,2.7c-0.4-1.9-1-3.7-1.9-5.3c-1.6-2.8-3.8-5-6.6-6.5
		c-2.8-1.5-6.2-2.3-10-2.3c-3.7,0-7,0.8-9.9,2.3c-2.8,1.5-5.1,3.7-6.6,6.5c-1.1,1.9-1.8,4.1-2.1,6.4C1.9,97.1,3.7,95.6,6.8,95.2z"/>
	<linearGradient id="SVGID_2_" gradientUnits="userSpaceOnUse" x1="1.4433" y1="100.3912" x2="16.4084" y2="115.2195">
		<stop  offset="2.717173e-07" style="stop-color:#01827F"/>
		<stop  offset="1" style="stop-color:#004B49"/>
	</linearGradient>
	<path class="st1" d="M12.4,116.5c-2-1.4-3.6-3.4-4.7-5.9c-1.1-2.5-1.7-5.5-1.7-8.9c0-2.4,0.3-4.5,0.8-6.5c-3.1,0.3-5,1.9-6,3.1
		c-0.2,1.1-0.2,2.2-0.2,3.4c0,3.7,0.8,7,2.4,9.8c1.6,2.8,3.8,5,6.6,6.5c2,1.1,4.3,1.8,6.7,2.1c0.1-0.5,0.3-1.1,0.6-1.8
		C15.3,118,13.8,117.4,12.4,116.5z"/>
	<linearGradient id="SVGID_3_" gradientUnits="userSpaceOnUse" x1="41.0539" y1="88.5732" x2="23.1505" y2="121.1">
		<stop  offset="2.717173e-07" style="stop-color:#01827F"/>
		<stop  offset="1" style="stop-color:#004B49"/>
	</linearGradient>
	<path class="st2" d="M38.1,97.2c-1.6,0-3.9-0.5-6.1-2.7c0.7,2.1,1.1,4.5,1.1,7.2c0,3.4-0.6,6.4-1.7,8.9c-1.1,2.5-2.7,4.5-4.7,5.9
		c-2,1.4-4.4,2.1-7.2,2.1c-0.9,0-1.8-0.1-2.6-0.2c-0.3,0.6-0.5,1.2-0.6,1.8c1,0.1,2.1,0.2,3.2,0.2c3.8,0,7.1-0.8,10-2.3
		c2.8-1.5,5.1-3.7,6.6-6.5c1.6-2.8,2.4-6.1,2.4-9.8C38.5,100.1,38.4,98.6,38.1,97.2z"/>
	<linearGradient id="SVGID_4_" gradientUnits="userSpaceOnUse" x1="60.5852" y1="89.4023" x2="60.5966" y2="89.4023">
		<stop  offset="2.717173e-07" style="stop-color:#01827F"/>
		<stop  offset="1" style="stop-color:#004B49"/>
	</linearGradient>
	<polygon class="st3" points="60.6,89.6 60.6,89.2 60.6,89.6 	"/>
	<linearGradient id="SVGID_5_" gradientUnits="userSpaceOnUse" x1="42.8668" y1="92.6941" x2="61.3169" y2="99.7667">
		<stop  offset="2.717173e-07" style="stop-color:#01827F"/>
		<stop  offset="0.1768" style="stop-color:#037E7B"/>
		<stop  offset="0.417" style="stop-color:#067371"/>
		<stop  offset="0.6935" style="stop-color:#056260"/>
		<stop  offset="0.9952" style="stop-color:#004B49"/>
		<stop  offset="1" style="stop-color:#004B49"/>
	</linearGradient>
	<path class="st4" d="M58.5,88.7C58.5,88.7,58.5,88.7,58.5,88.7c-0.3,0-0.6-0.1-0.9-0.1c-0.7-0.1-1.4-0.2-2.2-0.2
		c-0.8-0.1-1.6-0.1-2.5-0.1c-1.6,0-3,0.3-4.3,1c-1.3,0.6-2.3,1.5-3.1,2.7c-0.8,1.1-1.2,2.4-1.3,3.9c-0.1,1.2,0.1,2.4,0.6,3.5
		c0.5,1.1,1.3,2.1,2.5,3l8.6,6.2c0.4-2.3-0.7-5.1-1.5-7l-4.1-3c-0.5-0.4-1-0.8-1.4-1.3c-0.4-0.4-0.6-0.9-0.8-1.3
		c-0.2-0.5-0.3-0.9-0.3-1.5c0-1.3,0.6-2.4,1.7-3.2c1.1-0.9,2.6-1.3,4.3-1.3c2,0,3.5,0.4,4.5,1.3c1,0.8,1.5,2,1.5,3.4h0.6l0.1-5.1
		l0-0.4l0,0v-0.5H58.5z"/>
	<linearGradient id="SVGID_6_" gradientUnits="userSpaceOnUse" x1="60.2804" y1="108.2753" x2="41.7278" y2="117.9103">
		<stop  offset="2.717173e-07" style="stop-color:#01827F"/>
		<stop  offset="1" style="stop-color:#004B49"/>
	</linearGradient>
	<path class="st5" d="M62.1,108.2c-0.5-1.1-1.3-2-2.2-2.6l-5.4-4c0.8,1.8,1.9,4.6,1.5,7l0.7,0.5c0.9,0.6,1.5,1.3,1.9,2
		c0.4,0.7,0.6,1.4,0.6,2.3c0,1.5-0.6,2.8-1.7,3.8c-1.1,1-2.8,1.5-4.8,1.5c-1.6,0-3-0.3-4.2-0.9c-1.2-0.6-2.1-1.5-2.7-2.7
		c-0.6-1.2-0.9-2.5-0.7-4h-0.6c-0.3,0.6-0.5,1.4-0.7,2.3c-0.2,0.9-0.3,1.7-0.3,2.5c0,0.8,0.1,1.5,0.2,2c0.6,0.5,1.4,1,2.4,1.3
		c1,0.4,2,0.7,3.2,0.9c1.2,0.2,2.3,0.3,3.5,0.3c1.9,0,3.6-0.4,5.1-1.1c1.5-0.7,2.7-1.8,3.6-3.1c0.9-1.3,1.3-2.8,1.3-4.4
		C62.9,110.5,62.6,109.3,62.1,108.2z"/>
	<linearGradient id="SVGID_7_" gradientUnits="userSpaceOnUse" x1="96.7416" y1="93.4669" x2="76.1049" y2="93.2619">
		<stop  offset="2.717173e-07" style="stop-color:#01827F"/>
		<stop  offset="1" style="stop-color:#004B49"/>
	</linearGradient>
	<path class="st6" d="M78.7,91.7c1.9-1.2,4.1-1.8,6.7-1.8c2.9,0,5.5,0.7,7.6,2c2.1,1.3,3.6,3.6,4.4,6.7h0.5L97,91.1
		c-1.5-0.9-3.3-1.6-5.4-2.1c-2.1-0.5-4.2-0.8-6.4-0.8c-3.6,0-6.7,0.6-9.3,1.9c-0.2,0.1-0.4,0.2-0.6,0.3c0.2,1,0.6,2.1,1,3.1
		C77.1,92.9,77.8,92.2,78.7,91.7z"/>
	<linearGradient id="SVGID_8_" gradientUnits="userSpaceOnUse" x1="71.6658" y1="93.5206" x2="73.4425" y2="116.4807">
		<stop  offset="2.717173e-07" style="stop-color:#01827F"/>
		<stop  offset="1" style="stop-color:#004B49"/>
	</linearGradient>
	<path class="st7" d="M78.1,116.4c-1.6-1.1-2.9-2.7-3.8-4.6c-1-2.1-1.5-4.7-1.5-7.6c0-2.9,0.5-5.5,1.5-7.6c0.5-1.2,1.2-2.2,2-3
		c-0.5-1-0.8-2.1-1-3.1c-2.3,1.3-4.1,3-5.4,5.2c-1.4,2.4-2.1,5.2-2.1,8.6c0,3.3,0.7,6.2,2.1,8.6c0.8,1.4,1.8,2.5,3,3.6
		C74.6,116.7,76.5,116.9,78.1,116.4z"/>
	<linearGradient id="SVGID_9_" gradientUnits="userSpaceOnUse" x1="72.9758" y1="113.5211" x2="99.0236" y2="113.5211">
		<stop  offset="2.717173e-07" style="stop-color:#01827F"/>
		<stop  offset="1" style="stop-color:#004B49"/>
	</linearGradient>
	<path class="st8" d="M98.6,106.7c-0.3,2.8-1,5.1-2.2,6.8c-1.2,1.7-2.7,3-4.6,3.8c-1.9,0.8-4.1,1.2-6.6,1.2
		c-2.6-0.1-4.8-0.7-6.6-1.8c-0.2-0.1-0.3-0.2-0.5-0.3c-1.6,0.4-3.5,0.3-5.2,0c0.9,0.7,1.9,1.4,3,1.9c2.6,1.3,5.7,2,9.3,2
		c2.1,0,4-0.3,5.7-0.8c1.8-0.5,3.3-1.3,4.7-2.2c1.3-1,2.4-2.1,3.2-3.3l0.2-7.3H98.6z"/>
	<linearGradient id="SVGID_10_" gradientUnits="userSpaceOnUse" x1="107.6518" y1="82.1239" x2="117.0819" y2="96.1664">
		<stop  offset="2.717173e-07" style="stop-color:#01827F"/>
		<stop  offset="1" style="stop-color:#004B49"/>
	</linearGradient>
	<path class="st9" d="M122.8,88.7c-1.2,0.2-2.3,0.3-3.3,0.3h-7.6h-0.1h-3.9h-0.7h-3.6v0.5c0.4,0,0.7,0,0.7,0c0.8,0,1.5,0.3,2,0.8
		c0.5,0.5,0.8,1.2,0.8,1.9v9.5c1.8-0.5,3.4-2,4.7-3.3v-7.7h9.5c1,0,1.8,0.3,2.4,0.9c0.6,0.6,0.9,1.4,0.9,2.4v0.7h0.5v-4v-0.2v-1.1
		v-0.5v-0.8C124.8,88.3,124,88.5,122.8,88.7z"/>
	<linearGradient id="SVGID_11_" gradientUnits="userSpaceOnUse" x1="114.8213" y1="102.858" x2="115.5388" y2="118.438">
		<stop  offset="2.717173e-07" style="stop-color:#01827F"/>
		<stop  offset="1" style="stop-color:#004B49"/>
	</linearGradient>
	<path class="st10" d="M122.3,100.1v0.6c0,0.7-0.2,1.4-0.7,1.9c-0.5,0.5-1.1,0.8-2,0.8h-7.7v-5.1c-1.3,1.3-2.9,2.8-4.7,3.3v14.7h0.1
		l0.6,3.3h3.9v-1.7h0.1v-12.7h7.7c0.9,0,1.6,0.3,2,0.8c0.5,0.5,0.7,1.2,0.7,2v0.6h0.6v-3.3v-0.1v-1.5v-0.1v-3.3H122.3z"/>
	<linearGradient id="SVGID_12_" gradientUnits="userSpaceOnUse" x1="126.1687" y1="115.6176" x2="114.7911" y2="116.4376">
		<stop  offset="2.717173e-07" style="stop-color:#01827F"/>
		<stop  offset="1" style="stop-color:#004B49"/>
	</linearGradient>
	<path class="st11" d="M125.8,114.8c-0.7,1-1.6,1.7-2.7,2.2c-1.1,0.5-2.4,0.8-4,0.8H115h-3.1h-0.1v1.7h0.1h1.4h4.2h8h0.2l2.5-8h-0.5
		C127.1,112.8,126.5,113.9,125.8,114.8z"/>
	<linearGradient id="SVGID_13_" gradientUnits="userSpaceOnUse" x1="103.6736" y1="117.9668" x2="107.9148" y2="117.9668">
		<stop  offset="2.717173e-07" style="stop-color:#01827F"/>
		<stop  offset="1" style="stop-color:#004B49"/>
	</linearGradient>
	<path class="st12" d="M107.3,116.3c0,0.7-0.3,1.4-0.8,1.9c-0.5,0.5-1.2,0.8-2,0.8c0,0-0.3,0-0.7,0v0.5h3.6h0.7l-0.6-3.3H107.3z"/>
	<linearGradient id="SVGID_14_" gradientUnits="userSpaceOnUse" x1="130.8206" y1="103.7925" x2="150.8082" y2="104.7663">
		<stop  offset="0" style="stop-color:#004B49"/>
		<stop  offset="1" style="stop-color:#01827F"/>
	</linearGradient>
	<path class="st13" d="M139.4,118.3c-0.6-0.5-0.8-1.1-0.8-1.9h0l0-19.8l3.6,3.4c0.7-1,1.1-2.4,1.3-3.8l-8.8-8.1h-0.5
		c0.3,2.4,0.5,4.5,0.5,6.2v22c0,0.7-0.3,1.4-0.8,1.9c-0.5,0.5-1.2,0.8-2,0.8H131v0.5h3.7h0.2h3.6h0.2h3.7v-0.5h-0.9
		C140.6,119.1,139.9,118.8,139.4,118.3z"/>
	<radialGradient id="SVGID_15_" cx="149.4563" cy="104.8222" r="7.9588" gradientUnits="userSpaceOnUse">
		<stop  offset="2.717173e-07" style="stop-color:#01827F"/>
		<stop  offset="1" style="stop-color:#004B49"/>
	</radialGradient>
	<path class="st14" d="M156.8,108.6l-13.3-12.3c-0.2,1.4-0.6,2.7-1.3,3.8l14.4,13.3C156.4,111.9,156.4,110.1,156.8,108.6z"/>
	<linearGradient id="SVGID_16_" gradientUnits="userSpaceOnUse" x1="159.1425" y1="104.1282" x2="168.2992" y2="104.8116">
		<stop  offset="2.717173e-07" style="stop-color:#01827F"/>
		<stop  offset="1" style="stop-color:#004B49"/>
	</linearGradient>
	<path class="st15" d="M164,88.9h-0.2h-3.6h-0.1h-3.7v0.5h0.9c0.8,0,1.4,0.3,2,0.8c0.5,0.5,0.8,1.1,0.9,1.9v19.6l-3.4-3.1
		c-0.4,1.5-0.4,3.3-0.3,4.8l7.5,7h0.5c-0.2-1.2-0.3-2.3-0.4-3.2c-0.1-1-0.1-2-0.1-3.1V92.1c0-0.7,0.3-1.4,0.8-1.9
		c0.6-0.5,1.2-0.8,2-0.8h0.9v-0.5H164z"/>
	<linearGradient id="SVGID_17_" gradientUnits="userSpaceOnUse" x1="173.603" y1="100.981" x2="183.7164" y2="118.4744">
		<stop  offset="2.717173e-07" style="stop-color:#01827F"/>
		<stop  offset="1" style="stop-color:#004B49"/>
	</linearGradient>
	<path class="st16" d="M188.7,118.6c-2.3,0-4.4-0.6-6.3-1.8c-1.9-1.2-3.4-2.9-4.4-5c-1.1-2.1-1.6-4.7-1.6-7.5c0-2.9,0.5-5.4,1.6-7.5
		c0,0,0,0,0,0c-1.7,1.3-3.9,2.5-5.9,2.2c-0.6,1.6-0.8,3.4-0.8,5.3c0,2.4,0.4,4.6,1.3,6.6c0.9,2,2.1,3.6,3.7,5.1
		c1.6,1.4,3.5,2.5,5.6,3.3c1.3,0.5,2.6,0.8,4,1c1.1-0.3,2.1-0.9,3-1.5C188.8,118.6,188.7,118.6,188.7,118.6z"/>
	<linearGradient id="SVGID_18_" gradientUnits="userSpaceOnUse" x1="184.4932" y1="66.4246" x2="190.2332" y2="110.7047">
		<stop  offset="2.717173e-07" style="stop-color:#01827F"/>
		<stop  offset="1" style="stop-color:#004B49"/>
	</linearGradient>
	<path class="st17" d="M205,97.7c-0.9-2-2.1-3.6-3.7-5.1c-1.6-1.4-3.4-2.5-5.6-3.3c-2.1-0.8-4.5-1.1-7-1.1c-2.5,0-4.8,0.4-6.9,1.1
		c-2.1,0.8-4,1.9-5.6,3.3c-1.6,1.4-2.8,3.1-3.7,5.1c-0.2,0.4-0.3,0.8-0.5,1.2c2,0.2,4.2-1,5.9-2.2c1.1-2.1,2.6-3.8,4.4-5
		c1.9-1.2,4-1.8,6.3-1.8c2.4,0,4.5,0.6,6.4,1.8c1.9,1.2,3.3,2.9,4.4,5c0.7,1.3,1.1,2.8,1.4,4.4c1.6-0.5,3.2-1.6,4.4-2.5
		C205.2,98.3,205.1,98,205,97.7z"/>
	<linearGradient id="SVGID_19_" gradientUnits="userSpaceOnUse" x1="185.8079" y1="109.4453" x2="206.2806" y2="109.4453">
		<stop  offset="2.717173e-07" style="stop-color:#01827F"/>
		<stop  offset="1" style="stop-color:#004B49"/>
	</linearGradient>
	<path class="st18" d="M200.9,101.1c0.2,1,0.2,2,0.2,3.2c0,2.9-0.5,5.4-1.6,7.5c-1.1,2.1-2.5,3.8-4.4,5c-1.8,1.2-3.9,1.8-6.3,1.8
		c-0.9,0.6-2,1.2-3,1.5c0.9,0.1,1.9,0.2,2.9,0.2c2.5,0,4.8-0.4,7-1.1c2.1-0.8,4-1.9,5.6-3.3c1.6-1.4,2.8-3.1,3.7-5.1
		c0.9-2,1.3-4.1,1.3-6.6c0-2.1-0.3-4-1-5.7C204.1,99.6,202.5,100.6,200.9,101.1z"/>
	<linearGradient id="SVGID_20_" gradientUnits="userSpaceOnUse" x1="205.5659" y1="111.6561" x2="222.3772" y2="111.6561">
		<stop  offset="2.717173e-07" style="stop-color:#01827F"/>
		<stop  offset="1" style="stop-color:#004B49"/>
	</linearGradient>
	<path class="st19" d="M221.7,106.7l0.7-1l-1.4-2l-0.7,0.9l-8.2,10.6l-1.1,1.4c-0.5,0.7-1.2,1.2-2,1.7c-0.8,0.5-1.7,0.8-2.7,0.8
		h-0.7v0.5h11.2v-0.5h-0.6c-0.6,0-1.2-0.3-1.6-0.9c-0.5-0.6-0.5-1.2,0-1.8l0,0l2-2.8L221.7,106.7z"/>
	<linearGradient id="SVGID_21_" gradientUnits="userSpaceOnUse" x1="222.8628" y1="83.9907" x2="222.8628" y2="123.0761">
		<stop  offset="2.717173e-07" style="stop-color:#01827F"/>
		<stop  offset="1" style="stop-color:#004B49"/>
	</linearGradient>
	<path class="st20" d="M238.7,119.1c-1,0-1.9-0.3-2.8-0.8c-0.7-0.4-1.2-0.9-1.7-1.3l-5.4-7.9l-3.9-5.8l-0.7,1l-1.4-2.3l0.6-0.9
		l-2.3-3.4l0,0l-3.9-5.8c-0.3-0.6-0.2-1.1,0.2-1.6c0.4-0.6,0.9-0.9,1.6-0.9h0.6v-0.5h-13.2v0.5h0.6c1,0,2,0.2,2.8,0.7
		c0.6,0.4,1.2,0.8,1.6,1.3l5.8,8.6c0.4-0.1,0.7-0.3,1.1-0.5c-0.4,0.2-0.7,0.3-1.1,0.5l3.1,4.5l0.7-0.9l1.4,2l-0.7,1l2.9,4.3l3.7,5.5
		l0,0c0.4,0.6,0.4,1.2,0,1.8c-0.4,0.6-1,0.9-1.6,0.9h-0.6v0.5h13.3v-0.5H238.7z"/>
	<linearGradient id="SVGID_22_" gradientUnits="userSpaceOnUse" x1="232.4548" y1="89.7436" x2="223.6398" y2="102.6586">
		<stop  offset="2.717173e-07" style="stop-color:#01827F"/>
		<stop  offset="1" style="stop-color:#004B49"/>
	</linearGradient>
	<path class="st21" d="M227.2,88.9v0.5h0.6c0.7,0,1.2,0.3,1.6,0.9c0.4,0.6,0.4,1.2,0,1.8l-5.9,9l-0.6,0.9l1.4,2.3l0.7-1l8-11.3l0,0
		c0.5-0.7,1.1-1.3,2-1.8c0.9-0.5,1.8-0.7,2.8-0.7h0.7v-0.5H227.2z"/>
	<linearGradient id="SVGID_23_" gradientUnits="userSpaceOnUse" x1="0.6063" y1="126.1731" x2="239.3937" y2="126.1731">
		<stop  offset="2.717173e-07" style="stop-color:#01827F"/>
		<stop  offset="1" style="stop-color:#004B49"/>
	</linearGradient>
	
		<line style="fill:none;stroke:url(#SVGID_23_);stroke-width:0.4015;stroke-miterlimit:10;" x1="0.6" y1="126.2" x2="239.4" y2="126.2"/>
	<g>
		<radialGradient id="SVGID_24_" cx="120" cy="38.8007" r="35.1216" gradientUnits="userSpaceOnUse">
			<stop  offset="2.717173e-07" style="stop-color:#029B98"/>
			<stop  offset="0.2045" style="stop-color:#004B49"/>
			<stop  offset="0.376" style="stop-color:#049793"/>
			<stop  offset="0.5844" style="stop-color:#004B49"/>
			<stop  offset="0.7916" style="stop-color:#049793"/>
			<stop  offset="1" style="stop-color:#004B49"/>
		</radialGradient>
		<path class="st23" d="M135.9,60.3c7.6-0.6,17.2-6.2,20.1-17.4c-2.1,14.3-15.1,29.5-34.5,30.2C101,73.7,86.5,58.6,84,43
			c3.1,11.3,12.9,16.7,20,17.2c-0.2-0.1-0.3-0.2-0.5-0.3c-7.6-3.8-13-9.7-15.8-17.7c-3.2-9-2.6-17.8,2.1-26.2c1.9-3.3,4.6-6,7.6-8.3
			c0.7-0.6,1.4-1.1,2.3-1.5c-0.1,0.1-0.2,0.3-0.3,0.4c-4.3,5.3-6.5,11.4-6.6,18.2c0,9.6,3.6,17.6,11.2,23.5c3.1,2.4,7,3.3,11.1,2.5
			c1.6-0.3,3-1.2,4.2-2.4c2.4-2.4,4-5.2,4.4-8.7c0.3-2.9-2.2-5.8-5.1-5.8c-0.9,0-1.7,0.3-2.4,0.8c-0.6,0.4-1.1,0.8-1.6,1.4
			c-1.9,2-4.3,2.9-7,3c-0.8,0-1.3,0.3-1.9,0.8c-1.3,1.3-2.3,2.9-2.9,4.7c-0.1,0.2-0.1,0.4-0.4,0.6c-0.1-0.2-0.1-0.4-0.2-0.6
			c-0.3-2.3,0.1-4.4,0.9-6.6c0.3-0.7,0.2-1.6,0.3-2.4c0.1-3.2,1.5-5.8,3.8-7.7c2.3-1.9,4.7-3.5,7.1-5.3c0.8-0.6,1.6-1.1,2.4-1.7
			c2.3-1.7,3.1-4.1,2.6-6.9c-0.1-0.9-0.3-1.8-0.5-2.8c1.8,1.9,3,3.9,3.3,6.4c0.4,2.5-0.3,4.7-1.6,6.8c0.1,0,0.2,0.1,0.2,0.1
			c3-1.9,5.9-3.8,8-6.8c1.3-1.8,2.1-3.8,2.4-6.1c0.2-2-0.3-3.8-1.4-5.4c-0.4-0.5-0.7-1-1-1.6c0.1,0.1,0.3,0.1,0.4,0.2
			c2.2,1.6,4,3.4,4.5,6.2c0.8,4,0,7.7-2.3,11c-0.9,1.3-2,2.5-3,3.8c-0.1,0.2-0.3,0.4-0.5,0.6c0.9,0.7,1.7,1.4,2.6,2
			c3.7,2.8,5.5,6.6,5.9,11.2c0.2,2.3,0.2,4.7,0.3,7c0,0.2,0,0.4,0,0.7c8.9-7.3,15.1-24.4,5.2-39.9c0.7,0.6,1.4,1.1,2.1,1.7
			c6.1,5.2,9.3,11.8,9.9,19.7c1,13.1-5.8,25.3-17.6,31.1C136.4,60,136.2,60.1,135.9,60.3z M109.1,31.2c-1.4,1-2.2,2.2-2.6,3.8
			c1.1,0.1,1.9-0.2,2.5-1C109.6,33.2,109.7,32.3,109.1,31.2z"/>
		<radialGradient id="SVGID_25_" cx="113.5226" cy="19.7519" r="18.2899" gradientUnits="userSpaceOnUse">
			<stop  offset="2.717173e-07" style="stop-color:#029B98"/>
			<stop  offset="0.2045" style="stop-color:#004B49"/>
			<stop  offset="0.376" style="stop-color:#049793"/>
			<stop  offset="0.5844" style="stop-color:#004B49"/>
			<stop  offset="0.7916" style="stop-color:#049793"/>
			<stop  offset="1" style="stop-color:#004B49"/>
		</radialGradient>
		<path class="st24" d="M101.7,39.3c-3-3.9-4.7-8.2-5-13.1c-0.5-7.8,2-14.5,7.7-19.8c3.8-3.6,8.3-5.6,13.5-6
			c4.3-0.4,8.3,0.4,12.1,2.3c0.2,0.1,0.4,0.2,0.6,0.3c-10.3-1.7-18.8,1.3-25.2,9.4C99,20.5,98.2,29.6,101.7,39.3z"/>
	</g>
	<g>
		<g>
			<defs>
				<path id="SVGID_91_" d="M135.9,60.3c7.6-0.6,17.2-6.2,20.1-17.4c-2.1,14.3-15.1,29.5-34.5,30.2C101,73.7,86.5,58.6,84,43
					c3.1,11.3,12.9,16.7,20,17.2c-0.2-0.1-0.3-0.2-0.5-0.3c-7.6-3.8-13-9.7-15.8-17.7c-3.2-9-2.6-17.8,2.1-26.2
					c1.9-3.3,4.6-6,7.6-8.3c0.7-0.6,1.4-1.1,2.3-1.5c-0.1,0.1-0.2,0.3-0.3,0.4c-4.3,5.3-6.5,11.4-6.6,18.2c0,9.6,3.6,17.6,11.2,23.5
					c3.1,2.4,7,3.3,11.1,2.5c1.6-0.3,3-1.2,4.2-2.4c2.4-2.4,4-5.2,4.4-8.7c0.3-2.9-2.2-5.8-5.1-5.8c-0.9,0-1.7,0.3-2.4,0.8
					c-0.6,0.4-1.1,0.8-1.6,1.4c-1.9,2-4.3,2.9-7,3c-0.8,0-1.3,0.3-1.9,0.8c-1.3,1.3-2.3,2.9-2.9,4.7c-0.1,0.2-0.1,0.4-0.4,0.6
					c-0.1-0.2-0.1-0.4-0.2-0.6c-0.3-2.3,0.1-4.4,0.9-6.6c0.3-0.7,0.2-1.6,0.3-2.4c0.1-3.2,1.5-5.8,3.8-7.7c2.3-1.9,4.7-3.5,7.1-5.3
					c0.8-0.6,1.6-1.1,2.4-1.7c2.3-1.7,3.1-4.1,2.6-6.9c-0.1-0.9-0.3-1.8-0.5-2.8c1.8,1.9,3,3.9,3.3,6.4c0.4,2.5-0.3,4.7-1.6,6.8
					c0.1,0,0.2,0.1,0.2,0.1c3-1.9,5.9-3.8,8-6.8c1.3-1.8,2.1-3.8,2.4-6.1c0.2-2-0.3-3.8-1.4-5.4c-0.4-0.5-0.7-1-1-1.6
					c0.1,0.1,0.3,0.1,0.4,0.2c2.2,1.6,4,3.4,4.5,6.2c0.8,4,0,7.7-2.3,11c-0.9,1.3-2,2.5-3,3.8c-0.1,0.2-0.3,0.4-0.5,0.6
					c0.9,0.7,1.7,1.4,2.6,2c3.7,2.8,5.5,6.6,5.9,11.2c0.2,2.3,0.2,4.7,0.3,7c0,0.2,0,0.4,0,0.7c8.9-7.3,15.1-24.4,5.2-39.9
					c0.7,0.6,1.4,1.1,2.1,1.7c6.1,5.2,9.3,11.8,9.9,19.7c1,13.1-5.8,25.3-17.6,31.1C136.4,60,136.2,60.1,135.9,60.3z M109.1,31.2
					c-1.4,1-2.2,2.2-2.6,3.8c1.1,0.1,1.9-0.2,2.5-1C109.6,33.2,109.7,32.3,109.1,31.2z"/>
			</defs>
			<clipPath id="SVGID_27_">
				<use xlink:href="#SVGID_91_"  style="overflow:visible;"/>
			</clipPath>
			<g transform="matrix(1 0 0 1 0 -3.814697e-06)" style="clip-path:url(#SVGID_27_);">
				
					<image style="overflow:visible;" width="3601" height="3601" xlink:href="C:\Users\hp\Downloads\glitter-01-01.png"  transform="matrix(8.603237e-02 0 0 8.603237e-02 -140.732 -46.933)">
				</image>
			</g>
		</g>
		<g>
			<defs>
				<path id="SVGID_93_" d="M101.7,39.3c-3-3.9-4.7-8.2-5-13.1c-0.5-7.8,2-14.5,7.7-19.8c3.8-3.6,8.3-5.6,13.5-6
					c4.3-0.4,8.3,0.4,12.1,2.3c0.2,0.1,0.4,0.2,0.6,0.3c-10.3-1.7-18.8,1.3-25.2,9.4C99,20.5,98.2,29.6,101.7,39.3z"/>
			</defs>
			<clipPath id="SVGID_29_">
				<use xlink:href="#SVGID_93_"  style="overflow:visible;"/>
			</clipPath>
			<g style="clip-path:url(#SVGID_29_);">
				
					<image style="overflow:visible;" width="3601" height="3601" xlink:href="C:\Users\hp\Downloads\glitter-01-01.png"  transform="matrix(0.11 0 0 0.11 -168.1292 -14.7355)">
				</image>
			</g>
		</g>
	</g>
	<g>
		<radialGradient id="SVGID_30_" cx="4.2011" cy="134.3404" r="3.2763" gradientUnits="userSpaceOnUse">
			<stop  offset="0" style="stop-color:#004B49"/>
			<stop  offset="0.2084" style="stop-color:#049793"/>
			<stop  offset="0.4156" style="stop-color:#004B49"/>
			<stop  offset="0.624" style="stop-color:#049793"/>
			<stop  offset="0.7955" style="stop-color:#004B49"/>
			<stop  offset="1" style="stop-color:#029B98"/>
		</radialGradient>
		<path class="st25" d="M7.3,134.9l0.1,1.6c-0.1,0.2-0.3,0.4-0.5,0.6c-0.2,0.2-0.5,0.3-0.9,0.4c-0.3,0.1-0.7,0.2-1.2,0.2
			c-0.8,0-1.4-0.1-2-0.4c-0.6-0.3-1-0.7-1.3-1.2C1.2,135.6,1,135,1,134.3c0-0.7,0.2-1.3,0.5-1.8c0.3-0.5,0.7-0.9,1.3-1.2
			c0.6-0.3,1.2-0.4,2-0.4c0.5,0,0.9,0,1.3,0.1c0.4,0.1,0.7,0.2,1,0.4l0,1.6H7c-0.2-0.6-0.4-1-0.8-1.3c-0.4-0.3-0.8-0.4-1.3-0.4
			c-0.5,0-0.9,0.1-1.3,0.4c-0.4,0.2-0.6,0.6-0.8,1c-0.2,0.4-0.3,1-0.3,1.6c0,0.6,0.1,1.1,0.3,1.6c0.2,0.4,0.4,0.8,0.8,1
			c0.3,0.2,0.7,0.4,1.2,0.4c0.5,0,0.9-0.1,1.2-0.2c0.3-0.2,0.6-0.4,0.8-0.8C7,136,7.1,135.5,7.3,134.9L7.3,134.9z"/>
		<radialGradient id="SVGID_31_" cx="11.6495" cy="134.3403" r="3.3459" gradientUnits="userSpaceOnUse">
			<stop  offset="0" style="stop-color:#004B49"/>
			<stop  offset="0.2084" style="stop-color:#049793"/>
			<stop  offset="0.4156" style="stop-color:#004B49"/>
			<stop  offset="0.624" style="stop-color:#049793"/>
			<stop  offset="0.7955" style="stop-color:#004B49"/>
			<stop  offset="1" style="stop-color:#029B98"/>
		</radialGradient>
		<path class="st26" d="M8.9,131.8L8.9,131.8c0-0.2-0.1-0.3-0.2-0.4c-0.1-0.1-0.3-0.2-0.4-0.2c0,0,0,0-0.1,0c0,0-0.1,0-0.1,0v-0.1
			h0.7V131.8z M8.9,136.9v0.7H8.2v-0.1c0,0,0,0,0.1,0c0,0,0.1,0,0.1,0c0.2,0,0.3-0.1,0.4-0.2C8.9,137.2,8.9,137.1,8.9,136.9
			L8.9,136.9z M10.3,131.1v6.5H8.9v-6.5H10.3z M11.4,131.1c0.3,0,0.5,0,0.8,0.1c0.3,0.1,0.5,0.2,0.7,0.3c0.2,0.1,0.4,0.3,0.5,0.5
			c0.1,0.2,0.2,0.5,0.2,0.8c0,0.3-0.1,0.5-0.2,0.8c-0.1,0.3-0.3,0.5-0.5,0.7c-0.2,0.2-0.5,0.3-0.9,0.3c0.2,0.1,0.4,0.2,0.5,0.3
			c0.2,0.2,0.3,0.3,0.4,0.5c0,0,0,0.1,0.1,0.2c0.1,0.1,0.1,0.2,0.2,0.4c0.1,0.1,0.2,0.3,0.3,0.4c0.1,0.1,0.2,0.3,0.3,0.4
			c0.1,0.2,0.3,0.3,0.4,0.4c0.1,0.1,0.2,0.2,0.4,0.2c0.1,0,0.3,0.1,0.4,0.1v0.1h-0.9c-0.3,0-0.6,0-0.9-0.1c-0.3-0.1-0.5-0.2-0.7-0.3
			c-0.2-0.1-0.4-0.3-0.5-0.6c0-0.1-0.1-0.2-0.2-0.3c-0.1-0.1-0.1-0.2-0.2-0.4c-0.1-0.1-0.1-0.3-0.2-0.4s-0.1-0.2-0.2-0.3
			c0-0.1-0.1-0.2-0.1-0.2c-0.1-0.2-0.2-0.3-0.3-0.4c-0.1-0.1-0.2-0.2-0.3-0.2v-0.1c0,0,0.1,0,0.1,0c0.1,0,0.1,0,0.2,0
			c0.2,0,0.3,0,0.5-0.1c0.2-0.1,0.3-0.2,0.4-0.3c0.1-0.2,0.2-0.4,0.3-0.6c0-0.1,0-0.1,0-0.2c0-0.1,0-0.2,0-0.3c0-0.4-0.1-0.8-0.3-1
			c-0.2-0.2-0.5-0.3-0.8-0.3c-0.1,0-0.2,0-0.3,0c-0.1,0-0.2,0-0.3,0c-0.1,0-0.1,0-0.2,0c0,0,0,0,0-0.1c0-0.1,0-0.2-0.1-0.3H11.4z
			 M10.3,136.9L10.3,136.9c0,0.2,0.1,0.3,0.2,0.4c0.1,0.1,0.3,0.2,0.4,0.2c0,0,0,0,0.1,0v0.1h-0.7V136.9z"/>
		<radialGradient id="SVGID_32_" cx="17.7081" cy="134.257" r="2.9905" gradientUnits="userSpaceOnUse">
			<stop  offset="0" style="stop-color:#004B49"/>
			<stop  offset="0.2084" style="stop-color:#049793"/>
			<stop  offset="0.4156" style="stop-color:#004B49"/>
			<stop  offset="0.624" style="stop-color:#049793"/>
			<stop  offset="0.7955" style="stop-color:#004B49"/>
			<stop  offset="1" style="stop-color:#029B98"/>
		</radialGradient>
		<path class="st27" d="M15.8,131.8L15.8,131.8c0-0.2-0.1-0.3-0.2-0.4c-0.1-0.1-0.3-0.2-0.4-0.2h-0.1v-0.1h0.7V131.8z M15.8,136.9
			v0.7h-0.7v-0.1h0.1c0.2,0,0.3-0.1,0.4-0.2C15.7,137.2,15.8,137.1,15.8,136.9L15.8,136.9z M17.2,131.1v6.5h-1.4v-6.5H17.2z
			 M19.8,131.1v0.4h-2.6v-0.4H19.8z M19.3,134.2v0.4h-2.1v-0.4H19.3z M19.6,137.2l0.2,0.4h-2.7v-0.4H19.6z M20.3,135.7l-0.4,1.9
			h-1.8l0.3-0.4c0.3,0,0.6-0.1,0.8-0.2c0.2-0.1,0.4-0.3,0.6-0.5C20,136.3,20.1,136,20.3,135.7L20.3,135.7z M19.3,133.3v0.9h-0.9v0
			c0.2,0,0.4-0.1,0.6-0.2S19.2,133.6,19.3,133.3L19.3,133.3L19.3,133.3z M19.3,134.6v0.9h-0.1v-0.1c0-0.2-0.1-0.4-0.2-0.6
			c-0.1-0.1-0.3-0.2-0.6-0.2v0H19.3z M19.8,130.9v0.3l-1.1-0.1c0.1,0,0.3,0,0.4,0c0.2,0,0.3,0,0.4-0.1C19.6,131,19.7,131,19.8,130.9
			z M19.8,131.5v1.1h-0.1v-0.1c0-0.3-0.1-0.5-0.3-0.7c-0.2-0.2-0.4-0.3-0.7-0.3v0H19.8z"/>
		<radialGradient id="SVGID_33_" cx="23.8825" cy="134.2477" r="3.46" gradientUnits="userSpaceOnUse">
			<stop  offset="0" style="stop-color:#004B49"/>
			<stop  offset="0.2084" style="stop-color:#049793"/>
			<stop  offset="0.4156" style="stop-color:#004B49"/>
			<stop  offset="0.624" style="stop-color:#049793"/>
			<stop  offset="0.7955" style="stop-color:#004B49"/>
			<stop  offset="1" style="stop-color:#029B98"/>
		</radialGradient>
		<path class="st28" d="M21.8,136.9c0,0.1-0.1,0.2,0,0.3c0,0.1,0.1,0.2,0.2,0.2c0.1,0,0.1,0.1,0.2,0.1h0.1v0.1h-2v-0.1h0.1
			c0.1,0,0.3,0,0.4-0.1c0.2-0.1,0.3-0.2,0.4-0.4H21.8z M23.8,130.9l0,1.1l-2.3,5.5h-0.7l2.4-5.4c0,0,0.1-0.1,0.1-0.2
			c0-0.1,0.1-0.2,0.1-0.3c0.1-0.1,0.1-0.3,0.1-0.4C23.7,131.1,23.8,131,23.8,130.9L23.8,130.9z M24.8,135.4v0.4h-2.7v-0.4H24.8z
			 M23.8,130.9l3,6.6h-1.7l-1.9-4.8L23.8,130.9z M25,136.9h1.6c0.1,0.2,0.2,0.4,0.4,0.4c0.1,0.1,0.3,0.1,0.4,0.1h0.1v0.1h-2.9v-0.1
			h0.1c0.1,0,0.2-0.1,0.3-0.2C25,137.2,25,137.1,25,136.9z"/>
		<radialGradient id="SVGID_34_" cx="29.3718" cy="134.2524" r="3.1527" gradientUnits="userSpaceOnUse">
			<stop  offset="0" style="stop-color:#004B49"/>
			<stop  offset="0.2084" style="stop-color:#049793"/>
			<stop  offset="0.4156" style="stop-color:#004B49"/>
			<stop  offset="0.624" style="stop-color:#049793"/>
			<stop  offset="0.7955" style="stop-color:#004B49"/>
			<stop  offset="1" style="stop-color:#029B98"/>
		</radialGradient>
		<path class="st29" d="M26.4,130.9c0.1,0,0.2,0,0.3,0.1c0.1,0,0.3,0,0.4,0.1c0.2,0,0.3,0,0.4,0l-1.1,0.1V130.9z M32.3,131.1v0.4
			h-5.9v-0.4H32.3z M27.4,131.4L27.4,131.4c-0.3,0-0.5,0.1-0.7,0.3c-0.2,0.2-0.3,0.4-0.3,0.7v0.1l-0.1,0v-1.1H27.4z M28.7,136.9v0.7
			H28v-0.1h0.1c0.2,0,0.3-0.1,0.4-0.2C28.6,137.2,28.7,137.1,28.7,136.9L28.7,136.9z M30.1,131.1v6.5h-1.4v-6.5H30.1z M30,136.9
			L30,136.9c0,0.2,0.1,0.3,0.2,0.4c0.1,0.1,0.3,0.2,0.4,0.2h0.1v0.1H30V136.9z M32.3,130.9v0.3l-1.1-0.1c0.1,0,0.3,0,0.4,0
			c0.2,0,0.3,0,0.4-0.1C32.2,131,32.3,130.9,32.3,130.9z M32.3,131.4v1.1l-0.1,0v-0.1c0-0.3-0.1-0.5-0.3-0.7
			c-0.2-0.2-0.4-0.3-0.7-0.3v0H32.3z"/>
		<radialGradient id="SVGID_35_" cx="35.4577" cy="134.257" r="2.9905" gradientUnits="userSpaceOnUse">
			<stop  offset="0" style="stop-color:#004B49"/>
			<stop  offset="0.2084" style="stop-color:#049793"/>
			<stop  offset="0.4156" style="stop-color:#004B49"/>
			<stop  offset="0.624" style="stop-color:#049793"/>
			<stop  offset="0.7955" style="stop-color:#004B49"/>
			<stop  offset="1" style="stop-color:#029B98"/>
		</radialGradient>
		<path class="st30" d="M33.6,131.8L33.6,131.8c0-0.2-0.1-0.3-0.2-0.4c-0.1-0.1-0.3-0.2-0.4-0.2h-0.1v-0.1h0.7V131.8z M33.6,136.9
			v0.7h-0.7v-0.1H33c0.2,0,0.3-0.1,0.4-0.2C33.5,137.2,33.6,137.1,33.6,136.9L33.6,136.9z M34.9,131.1v6.5h-1.4v-6.5H34.9z
			 M37.5,131.1v0.4h-2.6v-0.4H37.5z M37.1,134.2v0.4h-2.1v-0.4H37.1z M37.4,137.2l0.2,0.4h-2.7v-0.4H37.4z M38.1,135.7l-0.4,1.9
			h-1.8l0.3-0.4c0.3,0,0.6-0.1,0.8-0.2c0.2-0.1,0.4-0.3,0.6-0.5C37.7,136.3,37.9,136,38.1,135.7L38.1,135.7z M37.1,133.3v0.9h-0.9v0
			c0.2,0,0.4-0.1,0.6-0.2C36.9,133.8,37,133.6,37.1,133.3L37.1,133.3L37.1,133.3z M37.1,134.6v0.9H37v-0.1c0-0.2-0.1-0.4-0.2-0.6
			c-0.1-0.1-0.3-0.2-0.6-0.2v0H37.1z M37.5,130.9v0.3l-1.1-0.1c0.1,0,0.3,0,0.4,0c0.2,0,0.3,0,0.4-0.1C37.4,131,37.4,131,37.5,130.9
			z M37.5,131.5v1.1h-0.1v-0.1c0-0.3-0.1-0.5-0.3-0.7c-0.2-0.2-0.4-0.3-0.7-0.3v0H37.5z"/>
		<radialGradient id="SVGID_36_" cx="45.0461" cy="134.3681" r="3.9894" gradientUnits="userSpaceOnUse">
			<stop  offset="0" style="stop-color:#004B49"/>
			<stop  offset="0.2084" style="stop-color:#049793"/>
			<stop  offset="0.4156" style="stop-color:#004B49"/>
			<stop  offset="0.624" style="stop-color:#049793"/>
			<stop  offset="0.7955" style="stop-color:#004B49"/>
			<stop  offset="1" style="stop-color:#029B98"/>
		</radialGradient>
		<path class="st31" d="M41.6,136.9v0.7h-1v-0.1c0,0,0.1,0,0.1,0c0.2,0,0.3-0.1,0.4-0.2c0.1-0.1,0.2-0.2,0.2-0.4H41.6z M42.1,131
			L42.1,131l0.4,0.9l-0.6,5.7h-0.6L42.1,131z M42,137.1C42,137.1,42,137.1,42,137.1C42,137.1,42,137.1,42,137.1c0,0.1,0,0.2,0.1,0.3
			c0.1,0.1,0.2,0.1,0.3,0.1h0.1v0.1h-0.6L42,137.1L42,137.1z M42.2,131l3,5l-0.5,1.8l-2.7-4.6L42.2,131z M47.9,131l0.1,1l-2.8,4.8
			c-0.1,0.2-0.2,0.4-0.3,0.6c-0.1,0.2-0.1,0.3-0.1,0.5h-0.1l-0.4-0.8L47.9,131z M47.3,137.1L47.3,137.1l0.1,0.5h-0.6v-0.1h0.1
			c0.1,0,0.2,0,0.3-0.1C47.2,137.3,47.3,137.2,47.3,137.1C47.3,137.1,47.3,137.1,47.3,137.1C47.3,137.1,47.3,137.1,47.3,137.1z
			 M47.9,131l0.9,6.6h-1.5l-0.5-4.3L47.9,131L47.9,131z M48.5,136.9h0.2c0,0.2,0.1,0.3,0.2,0.4c0.1,0.1,0.3,0.2,0.4,0.2h0.1v0.1h-1
			V136.9z"/>
		<radialGradient id="SVGID_37_" cx="52.4571" cy="134.257" r="2.9905" gradientUnits="userSpaceOnUse">
			<stop  offset="0" style="stop-color:#004B49"/>
			<stop  offset="0.2084" style="stop-color:#049793"/>
			<stop  offset="0.4156" style="stop-color:#004B49"/>
			<stop  offset="0.624" style="stop-color:#049793"/>
			<stop  offset="0.7955" style="stop-color:#004B49"/>
			<stop  offset="1" style="stop-color:#029B98"/>
		</radialGradient>
		<path class="st32" d="M50.6,131.8L50.6,131.8c0-0.2-0.1-0.3-0.2-0.4c-0.1-0.1-0.3-0.2-0.4-0.2h-0.1v-0.1h0.7V131.8z M50.6,136.9
			v0.7h-0.7v-0.1H50c0.2,0,0.3-0.1,0.4-0.2C50.5,137.2,50.6,137.1,50.6,136.9L50.6,136.9z M51.9,131.1v6.5h-1.4v-6.5H51.9z
			 M54.5,131.1v0.4h-2.6v-0.4H54.5z M54.1,134.2v0.4h-2.1v-0.4H54.1z M54.4,137.2l0.2,0.4h-2.7v-0.4H54.4z M55.1,135.7l-0.4,1.9
			h-1.8l0.3-0.4c0.3,0,0.6-0.1,0.8-0.2c0.2-0.1,0.4-0.3,0.6-0.5C54.7,136.3,54.9,136,55.1,135.7L55.1,135.7z M54.1,133.3v0.9h-0.9v0
			c0.2,0,0.4-0.1,0.6-0.2C53.9,133.8,54,133.6,54.1,133.3L54.1,133.3L54.1,133.3z M54.1,134.6v0.9H54v-0.1c0-0.2-0.1-0.4-0.2-0.6
			c-0.1-0.1-0.3-0.2-0.6-0.2v0H54.1z M54.5,130.9v0.3l-1.1-0.1c0.1,0,0.3,0,0.4,0c0.2,0,0.3,0,0.4-0.1C54.4,131,54.4,131,54.5,130.9
			z M54.5,131.5v1.1h-0.1v-0.1c0-0.3-0.1-0.5-0.3-0.7c-0.2-0.2-0.4-0.3-0.7-0.3v0H54.5z"/>
		<radialGradient id="SVGID_38_" cx="59.7292" cy="134.3681" r="3.9894" gradientUnits="userSpaceOnUse">
			<stop  offset="0" style="stop-color:#004B49"/>
			<stop  offset="0.2084" style="stop-color:#049793"/>
			<stop  offset="0.4156" style="stop-color:#004B49"/>
			<stop  offset="0.624" style="stop-color:#049793"/>
			<stop  offset="0.7955" style="stop-color:#004B49"/>
			<stop  offset="1" style="stop-color:#029B98"/>
		</radialGradient>
		<path class="st33" d="M56.3,136.9v0.7h-1v-0.1c0,0,0.1,0,0.1,0c0.2,0,0.3-0.1,0.4-0.2c0.1-0.1,0.2-0.2,0.2-0.4H56.3z M56.8,131
			L56.8,131l0.4,0.9l-0.6,5.7H56L56.8,131z M56.7,137.1C56.7,137.1,56.7,137.1,56.7,137.1C56.7,137.1,56.7,137.1,56.7,137.1
			c0,0.1,0,0.2,0.1,0.3c0.1,0.1,0.2,0.1,0.3,0.1h0.1v0.1h-0.6L56.7,137.1L56.7,137.1z M56.9,131l3,5l-0.5,1.8l-2.7-4.6L56.9,131z
			 M62.5,131l0.1,1l-2.8,4.8c-0.1,0.2-0.2,0.4-0.3,0.6c-0.1,0.2-0.1,0.3-0.1,0.5h-0.1L59,137L62.5,131z M62,137.1L62,137.1l0.1,0.5
			h-0.6v-0.1h0.1c0.1,0,0.2,0,0.3-0.1C61.9,137.3,62,137.2,62,137.1C62,137.1,62,137.1,62,137.1C62,137.1,62,137.1,62,137.1z
			 M62.6,131l0.9,6.6H62l-0.5-4.3L62.6,131L62.6,131z M63.2,136.9h0.2c0,0.2,0.1,0.3,0.2,0.4c0.1,0.1,0.3,0.2,0.4,0.2h0.1v0.1h-1
			V136.9z"/>
		<radialGradient id="SVGID_39_" cx="68.1916" cy="134.3404" r="3.5114" gradientUnits="userSpaceOnUse">
			<stop  offset="0" style="stop-color:#004B49"/>
			<stop  offset="0.2084" style="stop-color:#049793"/>
			<stop  offset="0.4156" style="stop-color:#004B49"/>
			<stop  offset="0.624" style="stop-color:#049793"/>
			<stop  offset="0.7955" style="stop-color:#004B49"/>
			<stop  offset="1" style="stop-color:#029B98"/>
		</radialGradient>
		<path class="st34" d="M68.2,131c0.7,0,1.4,0.1,1.9,0.4c0.5,0.3,1,0.7,1.3,1.2c0.3,0.5,0.4,1.1,0.4,1.8c0,0.7-0.1,1.3-0.4,1.8
			c-0.3,0.5-0.7,0.9-1.3,1.2c-0.5,0.3-1.2,0.4-1.9,0.4c-0.7,0-1.4-0.1-1.9-0.4c-0.5-0.3-1-0.7-1.3-1.2c-0.3-0.5-0.4-1.1-0.4-1.8
			c0-0.7,0.1-1.3,0.4-1.8c0.3-0.5,0.7-0.9,1.3-1.2C66.8,131.1,67.4,131,68.2,131z M68.2,137.3c0.4,0,0.8-0.1,1.1-0.4
			c0.3-0.2,0.6-0.6,0.7-1c0.2-0.4,0.3-1,0.3-1.6c0-0.6-0.1-1.1-0.3-1.6c-0.2-0.4-0.4-0.8-0.7-1c-0.3-0.2-0.7-0.4-1.1-0.4
			c-0.4,0-0.8,0.1-1.1,0.4c-0.3,0.2-0.6,0.6-0.7,1c-0.2,0.4-0.3,1-0.3,1.6c0,0.6,0.1,1.1,0.3,1.6c0.2,0.4,0.4,0.8,0.7,1
			C67.4,137.2,67.8,137.3,68.2,137.3z"/>
		<radialGradient id="SVGID_40_" cx="75.9136" cy="134.3403" r="3.3459" gradientUnits="userSpaceOnUse">
			<stop  offset="0" style="stop-color:#004B49"/>
			<stop  offset="0.2084" style="stop-color:#049793"/>
			<stop  offset="0.4156" style="stop-color:#004B49"/>
			<stop  offset="0.624" style="stop-color:#049793"/>
			<stop  offset="0.7955" style="stop-color:#004B49"/>
			<stop  offset="1" style="stop-color:#029B98"/>
		</radialGradient>
		<path class="st35" d="M73.2,131.8L73.2,131.8c0-0.2-0.1-0.3-0.2-0.4c-0.1-0.1-0.3-0.2-0.4-0.2c0,0,0,0-0.1,0c0,0-0.1,0-0.1,0v-0.1
			h0.7V131.8z M73.2,136.9v0.7h-0.7v-0.1c0,0,0,0,0.1,0c0,0,0.1,0,0.1,0c0.2,0,0.3-0.1,0.4-0.2C73.1,137.2,73.2,137.1,73.2,136.9
			L73.2,136.9z M74.6,131.1v6.5h-1.4v-6.5H74.6z M75.6,131.1c0.3,0,0.5,0,0.8,0.1c0.3,0.1,0.5,0.2,0.7,0.3c0.2,0.1,0.4,0.3,0.5,0.5
			c0.1,0.2,0.2,0.5,0.2,0.8c0,0.3-0.1,0.5-0.2,0.8c-0.1,0.3-0.3,0.5-0.5,0.7c-0.2,0.2-0.5,0.3-0.9,0.3c0.2,0.1,0.4,0.2,0.5,0.3
			c0.2,0.2,0.3,0.3,0.4,0.5c0,0,0,0.1,0.1,0.2c0.1,0.1,0.1,0.2,0.2,0.4c0.1,0.1,0.2,0.3,0.3,0.4s0.2,0.3,0.3,0.4
			c0.1,0.2,0.3,0.3,0.4,0.4c0.1,0.1,0.2,0.2,0.4,0.2c0.1,0,0.3,0.1,0.4,0.1v0.1h-0.9c-0.3,0-0.6,0-0.9-0.1c-0.3-0.1-0.5-0.2-0.7-0.3
			c-0.2-0.1-0.4-0.3-0.5-0.6c0-0.1-0.1-0.2-0.2-0.3c-0.1-0.1-0.1-0.2-0.2-0.4c-0.1-0.1-0.1-0.3-0.2-0.4c-0.1-0.1-0.1-0.2-0.2-0.3
			c0-0.1-0.1-0.2-0.1-0.2c-0.1-0.2-0.2-0.3-0.3-0.4c-0.1-0.1-0.2-0.2-0.3-0.2v-0.1c0,0,0.1,0,0.1,0c0.1,0,0.1,0,0.2,0
			c0.2,0,0.3,0,0.5-0.1c0.2-0.1,0.3-0.2,0.4-0.3c0.1-0.2,0.2-0.4,0.3-0.6c0-0.1,0-0.1,0-0.2c0-0.1,0-0.2,0-0.3c0-0.4-0.1-0.8-0.3-1
			c-0.2-0.2-0.5-0.3-0.8-0.3c-0.1,0-0.2,0-0.3,0c-0.1,0-0.2,0-0.3,0c-0.1,0-0.1,0-0.2,0c0,0,0,0,0-0.1c0-0.1,0-0.2-0.1-0.3H75.6z
			 M74.5,136.9L74.5,136.9c0,0.2,0.1,0.3,0.2,0.4c0.1,0.1,0.3,0.2,0.4,0.2c0,0,0,0,0.1,0v0.1h-0.7V136.9z"/>
		<radialGradient id="SVGID_41_" cx="80.7678" cy="134.3403" r="2.4997" gradientUnits="userSpaceOnUse">
			<stop  offset="0" style="stop-color:#004B49"/>
			<stop  offset="0.2084" style="stop-color:#049793"/>
			<stop  offset="0.4156" style="stop-color:#004B49"/>
			<stop  offset="0.624" style="stop-color:#049793"/>
			<stop  offset="0.7955" style="stop-color:#004B49"/>
			<stop  offset="1" style="stop-color:#029B98"/>
		</radialGradient>
		<path class="st36" d="M80.1,131.8L80.1,131.8c0-0.2-0.1-0.3-0.2-0.4c-0.1-0.1-0.3-0.2-0.4-0.2h-0.1v-0.1h0.7V131.8z M80.1,136.9
			v0.7h-0.7v-0.1h0.1c0.2,0,0.3-0.1,0.4-0.2C80,137.2,80.1,137.1,80.1,136.9L80.1,136.9z M81.5,131.1v6.5h-1.4v-6.5H81.5z
			 M81.4,131.8v-0.7h0.7v0.1c0,0,0,0-0.1,0c-0.2,0-0.3,0.1-0.4,0.2C81.5,131.5,81.5,131.6,81.4,131.8L81.4,131.8z M81.4,136.9
			L81.4,136.9c0,0.2,0.1,0.3,0.2,0.4c0.1,0.1,0.3,0.2,0.4,0.2c0.1,0,0.1,0,0.1,0v0.1h-0.7V136.9z"/>
		<radialGradient id="SVGID_42_" cx="85.5571" cy="134.257" r="2.9905" gradientUnits="userSpaceOnUse">
			<stop  offset="0" style="stop-color:#004B49"/>
			<stop  offset="0.2084" style="stop-color:#049793"/>
			<stop  offset="0.4156" style="stop-color:#004B49"/>
			<stop  offset="0.624" style="stop-color:#049793"/>
			<stop  offset="0.7955" style="stop-color:#004B49"/>
			<stop  offset="1" style="stop-color:#029B98"/>
		</radialGradient>
		<path class="st37" d="M83.7,131.8L83.7,131.8c0-0.2-0.1-0.3-0.2-0.4c-0.1-0.1-0.3-0.2-0.4-0.2h-0.1v-0.1h0.7V131.8z M83.7,136.9
			v0.7h-0.7v-0.1h0.1c0.2,0,0.3-0.1,0.4-0.2C83.6,137.2,83.7,137.1,83.7,136.9L83.7,136.9z M85,131.1v6.5h-1.4v-6.5H85z M87.6,131.1
			v0.4H85v-0.4H87.6z M87.2,134.2v0.4H85v-0.4H87.2z M87.5,137.2l0.2,0.4H85v-0.4H87.5z M88.2,135.7l-0.4,1.9h-1.8l0.3-0.4
			c0.3,0,0.6-0.1,0.8-0.2c0.2-0.1,0.4-0.3,0.6-0.5C87.8,136.3,88,136,88.2,135.7L88.2,135.7z M87.2,133.3v0.9h-0.9v0
			c0.2,0,0.4-0.1,0.6-0.2C87,133.8,87.1,133.6,87.2,133.3L87.2,133.3L87.2,133.3z M87.2,134.6v0.9h-0.1v-0.1c0-0.2-0.1-0.4-0.2-0.6
			c-0.1-0.1-0.3-0.2-0.6-0.2v0H87.2z M87.6,130.9v0.3l-1.1-0.1c0.1,0,0.3,0,0.4,0c0.2,0,0.3,0,0.4-0.1C87.5,131,87.5,131,87.6,130.9
			z M87.6,131.5v1.1h-0.1v-0.1c0-0.3-0.1-0.5-0.3-0.7c-0.2-0.2-0.4-0.3-0.7-0.3v0H87.6z"/>
		<radialGradient id="SVGID_43_" cx="91.1073" cy="134.3404" r="2.8605" gradientUnits="userSpaceOnUse">
			<stop  offset="0" style="stop-color:#004B49"/>
			<stop  offset="0.2084" style="stop-color:#049793"/>
			<stop  offset="0.4156" style="stop-color:#004B49"/>
			<stop  offset="0.624" style="stop-color:#049793"/>
			<stop  offset="0.7955" style="stop-color:#004B49"/>
			<stop  offset="1" style="stop-color:#029B98"/>
		</radialGradient>
		<path class="st38" d="M91,131c0.1,0,0.3,0,0.5,0c0.2,0,0.4,0,0.6,0.1c0.2,0,0.4,0,0.5,0.1c0.1,0,0.2,0,0.3,0.1l-0.1,1.3h-0.1
			c0-0.3-0.1-0.6-0.4-0.8c-0.2-0.2-0.6-0.3-0.9-0.3c-0.4,0-0.6,0.1-0.9,0.3c-0.2,0.2-0.3,0.4-0.3,0.6c0,0.2,0.1,0.3,0.2,0.5
			c0.1,0.1,0.3,0.3,0.5,0.4l1.8,1.1c0.3,0.2,0.5,0.4,0.6,0.6c0.1,0.3,0.2,0.6,0.2,0.9c0,0.6-0.3,1.1-0.7,1.4c-0.4,0.3-1,0.5-1.8,0.5
			c-0.3,0-0.5,0-0.8-0.1c-0.3,0-0.5-0.1-0.7-0.2c-0.2-0.1-0.4-0.2-0.5-0.3c0-0.1-0.1-0.3-0.1-0.5c0-0.2,0-0.4,0.1-0.6
			c0.1-0.2,0.1-0.4,0.2-0.5h0.1c0,0.3,0,0.6,0.2,0.9c0.1,0.3,0.3,0.5,0.6,0.6c0.3,0.2,0.6,0.2,1,0.2c0.4,0,0.7-0.1,0.9-0.3
			c0.2-0.2,0.3-0.4,0.3-0.7c0-0.2-0.1-0.4-0.2-0.5c-0.1-0.2-0.3-0.3-0.6-0.4l-1.6-1.1c-0.3-0.2-0.6-0.4-0.7-0.7
			c-0.1-0.3-0.2-0.6-0.2-0.9c0-0.3,0.1-0.6,0.3-0.8c0.2-0.2,0.4-0.4,0.7-0.6C90.3,131,90.6,131,91,131z M92.8,131.1l0,0.2h-1.1v-0.2
			H92.8z"/>
		<radialGradient id="SVGID_44_" cx="99.0824" cy="134.257" r="2.9905" gradientUnits="userSpaceOnUse">
			<stop  offset="0" style="stop-color:#004B49"/>
			<stop  offset="0.2084" style="stop-color:#049793"/>
			<stop  offset="0.4156" style="stop-color:#004B49"/>
			<stop  offset="0.624" style="stop-color:#049793"/>
			<stop  offset="0.7955" style="stop-color:#004B49"/>
			<stop  offset="1" style="stop-color:#029B98"/>
		</radialGradient>
		<path class="st39" d="M97.2,131.8L97.2,131.8c0-0.2-0.1-0.3-0.2-0.4c-0.1-0.1-0.3-0.2-0.4-0.2h-0.1v-0.1h0.7V131.8z M97.2,136.9
			v0.7h-0.7v-0.1h0.1c0.2,0,0.3-0.1,0.4-0.2C97.1,137.2,97.2,137.1,97.2,136.9L97.2,136.9z M98.6,131.1v6.5h-1.4v-6.5H98.6z
			 M101.1,131.1v0.4h-2.6v-0.4H101.1z M100.7,134.2v0.4h-2.1v-0.4H100.7z M101,137.2l0.2,0.4h-2.7v-0.4H101z M101.7,135.7l-0.4,1.9
			h-1.8l0.3-0.4c0.3,0,0.6-0.1,0.8-0.2c0.2-0.1,0.4-0.3,0.6-0.5C101.4,136.3,101.5,136,101.7,135.7L101.7,135.7z M100.7,133.3v0.9
			h-0.9v0c0.2,0,0.4-0.1,0.6-0.2S100.6,133.6,100.7,133.3L100.7,133.3L100.7,133.3z M100.7,134.6v0.9h-0.1v-0.1
			c0-0.2-0.1-0.4-0.2-0.6c-0.1-0.1-0.3-0.2-0.6-0.2v0H100.7z M101.1,130.9v0.3l-1.1-0.1c0.1,0,0.3,0,0.4,0c0.2,0,0.3,0,0.4-0.1
			C101,131,101.1,131,101.1,130.9z M101.1,131.5v1.1H101v-0.1c0-0.3-0.1-0.5-0.3-0.7c-0.2-0.2-0.4-0.3-0.7-0.3v0H101.1z"/>
		<radialGradient id="SVGID_45_" cx="105.3264" cy="134.3403" r="3.4327" gradientUnits="userSpaceOnUse">
			<stop  offset="0" style="stop-color:#004B49"/>
			<stop  offset="0.2084" style="stop-color:#049793"/>
			<stop  offset="0.4156" style="stop-color:#004B49"/>
			<stop  offset="0.624" style="stop-color:#049793"/>
			<stop  offset="0.7955" style="stop-color:#004B49"/>
			<stop  offset="1" style="stop-color:#029B98"/>
		</radialGradient>
		<path class="st40" d="M103.6,136.9c-0.1,0.1-0.1,0.2-0.1,0.3c0,0.1,0.1,0.2,0.1,0.2c0.1,0.1,0.2,0.1,0.2,0.1h0.1v0.1h-2.3v-0.1
			h0.1c0.2,0,0.4-0.1,0.5-0.2c0.2-0.1,0.3-0.2,0.4-0.4L103.6,136.9z M105,131.1L105,131.1l-0.1,0.1c-0.1,0-0.2,0-0.2,0.1
			c-0.1,0.1-0.1,0.1-0.1,0.2c0,0.1,0,0.2,0,0.3l-1.6,0c-0.1-0.1-0.2-0.3-0.4-0.4c-0.2-0.1-0.3-0.2-0.5-0.2h-0.1v-0.1H105z
			 M104.7,134.2l0.5,0.4l-2,3h-0.8L104.7,134.2z M104.1,131.1l4.2,6.5h-1.6l-4.2-6.5H104.1z M108,131.1l-2.2,3.3l-0.4-0.5l1.8-2.9
			H108z M106.2,136.9l1.7,0c0.1,0.1,0.2,0.3,0.4,0.4c0.2,0.1,0.3,0.2,0.5,0.2h0.1v0.1h-3.2v-0.1h0.1c0.1,0,0.2-0.1,0.3-0.2
			C106.3,137.2,106.3,137.1,106.2,136.9z M108.6,131.1L108.6,131.1l-0.1,0.1c-0.2,0-0.4,0.1-0.5,0.2c-0.2,0.1-0.3,0.2-0.4,0.4
			l-0.8,0c0.1-0.1,0.1-0.2,0.1-0.3c0-0.1-0.1-0.2-0.1-0.2c-0.1-0.1-0.1-0.1-0.2-0.1h-0.1l0-0.1H108.6z"/>
		<radialGradient id="SVGID_46_" cx="111.8024" cy="134.3403" r="2.9821" gradientUnits="userSpaceOnUse">
			<stop  offset="0" style="stop-color:#004B49"/>
			<stop  offset="0.2084" style="stop-color:#049793"/>
			<stop  offset="0.4156" style="stop-color:#004B49"/>
			<stop  offset="0.624" style="stop-color:#049793"/>
			<stop  offset="0.7955" style="stop-color:#004B49"/>
			<stop  offset="1" style="stop-color:#029B98"/>
		</radialGradient>
		<path class="st41" d="M109.8,131.8L109.8,131.8c0-0.2-0.1-0.3-0.2-0.4c-0.1-0.1-0.3-0.2-0.4-0.2c0,0,0,0-0.1,0c0,0,0,0-0.1,0
			l0-0.1h0.7V131.8z M109.8,136.9v0.7h-0.7v-0.1c0,0,0,0,0.1,0c0,0,0.1,0,0.1,0c0.2,0,0.3-0.1,0.4-0.2
			C109.8,137.2,109.8,137.1,109.8,136.9L109.8,136.9z M111.2,131.1v6.5h-1.4v-6.5H111.2z M112.2,131.1c0.5,0,1,0.1,1.3,0.2
			c0.3,0.2,0.6,0.4,0.7,0.6c0.2,0.3,0.3,0.6,0.3,0.9c0,0.3,0,0.6-0.2,0.9c-0.1,0.3-0.3,0.5-0.5,0.6s-0.4,0.3-0.7,0.4
			c-0.3,0.1-0.5,0.1-0.8,0.1c-0.3,0-0.6-0.1-0.8-0.3v-0.1c0.2,0,0.3,0,0.4,0c0.1,0,0.2-0.1,0.4-0.1c0.1-0.1,0.3-0.2,0.4-0.3
			c0.1-0.1,0.2-0.3,0.3-0.6c0-0.1,0-0.2,0.1-0.3c0-0.1,0-0.2,0-0.3c0-0.4-0.1-0.7-0.3-0.9c-0.2-0.2-0.5-0.4-0.9-0.4h-0.6
			c0-0.1-0.1-0.3-0.1-0.4H112.2z M111.2,136.9L111.2,136.9c0,0.2,0.1,0.3,0.2,0.4c0.1,0.1,0.3,0.2,0.4,0.2c0,0,0,0,0.1,0
			s0.1,0,0.1,0v0.1h-0.7V136.9z"/>
		<radialGradient id="SVGID_47_" cx="117.7676" cy="134.257" r="2.9905" gradientUnits="userSpaceOnUse">
			<stop  offset="0" style="stop-color:#004B49"/>
			<stop  offset="0.2084" style="stop-color:#049793"/>
			<stop  offset="0.4156" style="stop-color:#004B49"/>
			<stop  offset="0.624" style="stop-color:#049793"/>
			<stop  offset="0.7955" style="stop-color:#004B49"/>
			<stop  offset="1" style="stop-color:#029B98"/>
		</radialGradient>
		<path class="st42" d="M115.9,131.8L115.9,131.8c0-0.2-0.1-0.3-0.2-0.4c-0.1-0.1-0.3-0.2-0.4-0.2h-0.1v-0.1h0.7V131.8z
			 M115.9,136.9v0.7h-0.7v-0.1h0.1c0.2,0,0.3-0.1,0.4-0.2C115.8,137.2,115.9,137.1,115.9,136.9L115.9,136.9z M117.3,131.1v6.5h-1.4
			v-6.5H117.3z M119.8,131.1v0.4h-2.6v-0.4H119.8z M119.4,134.2v0.4h-2.1v-0.4H119.4z M119.7,137.2l0.2,0.4h-2.7v-0.4H119.7z
			 M120.4,135.7l-0.4,1.9h-1.8l0.3-0.4c0.3,0,0.6-0.1,0.8-0.2c0.2-0.1,0.4-0.3,0.6-0.5C120.1,136.3,120.2,136,120.4,135.7
			L120.4,135.7z M119.4,133.3v0.9h-0.9v0c0.2,0,0.4-0.1,0.6-0.2S119.3,133.6,119.4,133.3L119.4,133.3L119.4,133.3z M119.4,134.6v0.9
			h-0.1v-0.1c0-0.2-0.1-0.4-0.2-0.6c-0.1-0.1-0.3-0.2-0.6-0.2v0H119.4z M119.8,130.9v0.3l-1.1-0.1c0.1,0,0.3,0,0.4,0
			c0.2,0,0.3,0,0.4-0.1C119.7,131,119.8,131,119.8,130.9z M119.8,131.5v1.1h-0.1v-0.1c0-0.3-0.1-0.5-0.3-0.7
			c-0.2-0.2-0.4-0.3-0.7-0.3v0H119.8z"/>
		<radialGradient id="SVGID_48_" cx="124.484" cy="134.3403" r="3.3459" gradientUnits="userSpaceOnUse">
			<stop  offset="0" style="stop-color:#004B49"/>
			<stop  offset="0.2084" style="stop-color:#049793"/>
			<stop  offset="0.4156" style="stop-color:#004B49"/>
			<stop  offset="0.624" style="stop-color:#049793"/>
			<stop  offset="0.7955" style="stop-color:#004B49"/>
			<stop  offset="1" style="stop-color:#029B98"/>
		</radialGradient>
		<path class="st43" d="M121.8,131.8L121.8,131.8c0-0.2-0.1-0.3-0.2-0.4c-0.1-0.1-0.3-0.2-0.4-0.2c0,0,0,0-0.1,0c0,0-0.1,0-0.1,0
			v-0.1h0.7V131.8z M121.8,136.9v0.7H121v-0.1c0,0,0,0,0.1,0c0,0,0.1,0,0.1,0c0.2,0,0.3-0.1,0.4-0.2
			C121.7,137.2,121.7,137.1,121.8,136.9L121.8,136.9z M123.1,131.1v6.5h-1.4v-6.5H123.1z M124.2,131.1c0.3,0,0.5,0,0.8,0.1
			c0.3,0.1,0.5,0.2,0.7,0.3c0.2,0.1,0.4,0.3,0.5,0.5c0.1,0.2,0.2,0.5,0.2,0.8c0,0.3-0.1,0.5-0.2,0.8c-0.1,0.3-0.3,0.5-0.5,0.7
			c-0.2,0.2-0.5,0.3-0.9,0.3c0.2,0.1,0.4,0.2,0.5,0.3c0.2,0.2,0.3,0.3,0.4,0.5c0,0,0,0.1,0.1,0.2c0.1,0.1,0.1,0.2,0.2,0.4
			c0.1,0.1,0.2,0.3,0.3,0.4s0.2,0.3,0.3,0.4c0.1,0.2,0.3,0.3,0.4,0.4c0.1,0.1,0.2,0.2,0.4,0.2c0.1,0,0.3,0.1,0.4,0.1v0.1H127
			c-0.3,0-0.6,0-0.9-0.1c-0.3-0.1-0.5-0.2-0.7-0.3c-0.2-0.1-0.4-0.3-0.5-0.6c0-0.1-0.1-0.2-0.2-0.3c-0.1-0.1-0.1-0.2-0.2-0.4
			c-0.1-0.1-0.1-0.3-0.2-0.4s-0.1-0.2-0.2-0.3c0-0.1-0.1-0.2-0.1-0.2c-0.1-0.2-0.2-0.3-0.3-0.4c-0.1-0.1-0.2-0.2-0.3-0.2v-0.1
			c0,0,0.1,0,0.1,0c0.1,0,0.1,0,0.2,0c0.2,0,0.3,0,0.5-0.1c0.2-0.1,0.3-0.2,0.4-0.3c0.1-0.2,0.2-0.4,0.3-0.6c0-0.1,0-0.1,0-0.2
			c0-0.1,0-0.2,0-0.3c0-0.4-0.1-0.8-0.3-1c-0.2-0.2-0.5-0.3-0.8-0.3c-0.1,0-0.2,0-0.3,0c-0.1,0-0.2,0-0.3,0c-0.1,0-0.1,0-0.2,0
			c0,0,0,0,0-0.1c0-0.1,0-0.2-0.1-0.3H124.2z M123.1,136.9L123.1,136.9c0,0.2,0.1,0.3,0.2,0.4c0.1,0.1,0.3,0.2,0.4,0.2
			c0,0,0,0,0.1,0v0.1h-0.7V136.9z"/>
		<radialGradient id="SVGID_49_" cx="129.3382" cy="134.3403" r="2.4997" gradientUnits="userSpaceOnUse">
			<stop  offset="0" style="stop-color:#004B49"/>
			<stop  offset="0.2084" style="stop-color:#049793"/>
			<stop  offset="0.4156" style="stop-color:#004B49"/>
			<stop  offset="0.624" style="stop-color:#049793"/>
			<stop  offset="0.7955" style="stop-color:#004B49"/>
			<stop  offset="1" style="stop-color:#029B98"/>
		</radialGradient>
		<path class="st44" d="M128.7,131.8L128.7,131.8c0-0.2-0.1-0.3-0.2-0.4c-0.1-0.1-0.3-0.2-0.4-0.2h-0.1v-0.1h0.7V131.8z
			 M128.7,136.9v0.7h-0.7v-0.1h0.1c0.2,0,0.3-0.1,0.4-0.2C128.6,137.2,128.6,137.1,128.7,136.9L128.7,136.9z M130,131.1v6.5h-1.4
			v-6.5H130z M130,131.8v-0.7h0.7v0.1c0,0,0,0-0.1,0c-0.2,0-0.3,0.1-0.4,0.2C130.1,131.5,130,131.6,130,131.8L130,131.8z M130,136.9
			L130,136.9c0,0.2,0.1,0.3,0.2,0.4c0.1,0.1,0.3,0.2,0.4,0.2c0.1,0,0.1,0,0.1,0v0.1H130V136.9z"/>
		<radialGradient id="SVGID_50_" cx="134.1278" cy="134.257" r="2.9905" gradientUnits="userSpaceOnUse">
			<stop  offset="0" style="stop-color:#004B49"/>
			<stop  offset="0.2084" style="stop-color:#049793"/>
			<stop  offset="0.4156" style="stop-color:#004B49"/>
			<stop  offset="0.624" style="stop-color:#049793"/>
			<stop  offset="0.7955" style="stop-color:#004B49"/>
			<stop  offset="1" style="stop-color:#029B98"/>
		</radialGradient>
		<path class="st45" d="M132.3,131.8L132.3,131.8c0-0.2-0.1-0.3-0.2-0.4c-0.1-0.1-0.3-0.2-0.4-0.2h-0.1v-0.1h0.7V131.8z
			 M132.3,136.9v0.7h-0.7v-0.1h0.1c0.2,0,0.3-0.1,0.4-0.2C132.2,137.2,132.2,137.1,132.3,136.9L132.3,136.9z M133.6,131.1v6.5h-1.4
			v-6.5H133.6z M136.2,131.1v0.4h-2.6v-0.4H136.2z M135.7,134.2v0.4h-2.1v-0.4H135.7z M136.1,137.2l0.2,0.4h-2.7v-0.4H136.1z
			 M136.7,135.7l-0.4,1.9h-1.8l0.3-0.4c0.3,0,0.6-0.1,0.8-0.2c0.2-0.1,0.4-0.3,0.6-0.5C136.4,136.3,136.5,136,136.7,135.7
			L136.7,135.7z M135.7,133.3v0.9h-0.9v0c0.2,0,0.4-0.1,0.6-0.2S135.6,133.6,135.7,133.3L135.7,133.3L135.7,133.3z M135.7,134.6v0.9
			h-0.1v-0.1c0-0.2-0.1-0.4-0.2-0.6c-0.1-0.1-0.3-0.2-0.6-0.2v0H135.7z M136.2,130.9v0.3l-1.1-0.1c0.1,0,0.3,0,0.4,0
			c0.2,0,0.3,0,0.4-0.1C136,131,136.1,131,136.2,130.9z M136.2,131.5v1.1h-0.1v-0.1c0-0.3-0.1-0.5-0.3-0.7c-0.2-0.2-0.4-0.3-0.7-0.3
			v0H136.2z"/>
		<radialGradient id="SVGID_51_" cx="140.9875" cy="134.3358" r="3.5571" gradientUnits="userSpaceOnUse">
			<stop  offset="0" style="stop-color:#004B49"/>
			<stop  offset="0.2084" style="stop-color:#049793"/>
			<stop  offset="0.4156" style="stop-color:#004B49"/>
			<stop  offset="0.624" style="stop-color:#049793"/>
			<stop  offset="0.7955" style="stop-color:#004B49"/>
			<stop  offset="1" style="stop-color:#029B98"/>
		</radialGradient>
		<path class="st46" d="M138,136.9v0.7h-0.8v-0.1c0.1,0,0.2,0,0.2,0c0.2,0,0.3-0.1,0.4-0.2C137.9,137.2,138,137.1,138,136.9
			L138,136.9z M138,131l1.3,1.4l0,5.2H138v-5.5C138,131.8,138,131.4,138,131L138,131z M138,131l5.9,5.6l0.1,1.1l-5.9-5.6L138,131z
			 M139.3,136.9c0,0.2,0.1,0.3,0.2,0.4c0.1,0.1,0.2,0.2,0.4,0.2c0,0,0.1,0,0.2,0v0.1h-0.8L139.3,136.9L139.3,136.9z M141.9,131.1
			h0.8v0.7h0c0-0.2-0.1-0.3-0.2-0.4c-0.1-0.1-0.2-0.2-0.4-0.2C142,131.2,141.9,131.2,141.9,131.1L141.9,131.1z M144,131.1v5.4
			c0,0.2,0,0.4,0,0.6c0,0.2,0,0.4,0.1,0.6H144l-1.3-1.5v-5.1H144z M144.7,131.1L144.7,131.1l-0.2,0.1c-0.2,0-0.3,0.1-0.4,0.2
			c-0.1,0.1-0.2,0.2-0.2,0.4h0v-0.7H144.7z"/>
		<radialGradient id="SVGID_52_" cx="148.4494" cy="134.3404" r="3.2763" gradientUnits="userSpaceOnUse">
			<stop  offset="0" style="stop-color:#004B49"/>
			<stop  offset="0.2084" style="stop-color:#049793"/>
			<stop  offset="0.4156" style="stop-color:#004B49"/>
			<stop  offset="0.624" style="stop-color:#049793"/>
			<stop  offset="0.7955" style="stop-color:#004B49"/>
			<stop  offset="1" style="stop-color:#029B98"/>
		</radialGradient>
		<path class="st47" d="M151.5,134.9l0.1,1.6c-0.1,0.2-0.3,0.4-0.5,0.6c-0.2,0.2-0.5,0.3-0.9,0.4c-0.3,0.1-0.7,0.2-1.2,0.2
			c-0.8,0-1.4-0.1-2-0.4c-0.6-0.3-1-0.7-1.3-1.2c-0.3-0.5-0.5-1.1-0.5-1.8c0-0.7,0.2-1.3,0.5-1.8c0.3-0.5,0.7-0.9,1.3-1.2
			c0.6-0.3,1.2-0.4,2-0.4c0.5,0,0.9,0,1.3,0.1c0.4,0.1,0.7,0.2,1,0.4l0,1.6h-0.1c-0.2-0.6-0.4-1-0.8-1.3c-0.4-0.3-0.8-0.4-1.3-0.4
			c-0.5,0-0.9,0.1-1.3,0.4c-0.4,0.2-0.6,0.6-0.8,1c-0.2,0.4-0.3,1-0.3,1.6c0,0.6,0.1,1.1,0.3,1.6c0.2,0.4,0.4,0.8,0.8,1
			c0.3,0.2,0.7,0.4,1.2,0.4c0.5,0,0.9-0.1,1.2-0.2c0.3-0.2,0.6-0.4,0.8-0.8C151.2,136,151.4,135.5,151.5,134.9L151.5,134.9z"/>
		<radialGradient id="SVGID_53_" cx="155.0363" cy="134.257" r="2.9905" gradientUnits="userSpaceOnUse">
			<stop  offset="0" style="stop-color:#004B49"/>
			<stop  offset="0.2084" style="stop-color:#049793"/>
			<stop  offset="0.4156" style="stop-color:#004B49"/>
			<stop  offset="0.624" style="stop-color:#049793"/>
			<stop  offset="0.7955" style="stop-color:#004B49"/>
			<stop  offset="1" style="stop-color:#029B98"/>
		</radialGradient>
		<path class="st48" d="M153.2,131.8L153.2,131.8c0-0.2-0.1-0.3-0.2-0.4c-0.1-0.1-0.3-0.2-0.4-0.2h-0.1v-0.1h0.7V131.8z
			 M153.2,136.9v0.7h-0.7v-0.1h0.1c0.2,0,0.3-0.1,0.4-0.2C153.1,137.2,153.1,137.1,153.2,136.9L153.2,136.9z M154.5,131.1v6.5h-1.4
			v-6.5H154.5z M157.1,131.1v0.4h-2.6v-0.4H157.1z M156.6,134.2v0.4h-2.1v-0.4H156.6z M157,137.2l0.2,0.4h-2.7v-0.4H157z
			 M157.6,135.7l-0.4,1.9h-1.8l0.3-0.4c0.3,0,0.6-0.1,0.8-0.2c0.2-0.1,0.4-0.3,0.6-0.5C157.3,136.3,157.5,136,157.6,135.7
			L157.6,135.7z M156.6,133.3v0.9h-0.9v0c0.2,0,0.4-0.1,0.6-0.2S156.5,133.6,156.6,133.3L156.6,133.3L156.6,133.3z M156.6,134.6v0.9
			h-0.1v-0.1c0-0.2-0.1-0.4-0.2-0.6c-0.1-0.1-0.3-0.2-0.6-0.2v0H156.6z M157.1,130.9v0.3l-1.1-0.1c0.1,0,0.3,0,0.4,0
			c0.2,0,0.3,0,0.4-0.1C156.9,131,157,131,157.1,130.9z M157.1,131.5v1.1H157v-0.1c0-0.3-0.1-0.5-0.3-0.7c-0.2-0.2-0.4-0.3-0.7-0.3
			v0H157.1z"/>
		<radialGradient id="SVGID_54_" cx="163.3001" cy="134.2524" r="3.1527" gradientUnits="userSpaceOnUse">
			<stop  offset="0" style="stop-color:#004B49"/>
			<stop  offset="0.2084" style="stop-color:#049793"/>
			<stop  offset="0.4156" style="stop-color:#004B49"/>
			<stop  offset="0.624" style="stop-color:#049793"/>
			<stop  offset="0.7955" style="stop-color:#004B49"/>
			<stop  offset="1" style="stop-color:#029B98"/>
		</radialGradient>
		<path class="st49" d="M160.3,130.9c0.1,0,0.2,0,0.3,0.1c0.1,0,0.3,0,0.4,0.1c0.2,0,0.3,0,0.4,0l-1.1,0.1V130.9z M166.3,131.1v0.4
			h-5.9v-0.4H166.3z M161.4,131.4L161.4,131.4c-0.3,0-0.5,0.1-0.7,0.3c-0.2,0.2-0.3,0.4-0.3,0.7v0.1l-0.1,0v-1.1H161.4z
			 M162.6,136.9v0.7h-0.7v-0.1h0.1c0.2,0,0.3-0.1,0.4-0.2C162.5,137.2,162.6,137.1,162.6,136.9L162.6,136.9z M164,131.1v6.5h-1.4
			v-6.5H164z M164,136.9L164,136.9c0,0.2,0.1,0.3,0.2,0.4c0.1,0.1,0.3,0.2,0.4,0.2h0.1v0.1H164V136.9z M166.3,130.9v0.3l-1.1-0.1
			c0.1,0,0.3,0,0.4,0c0.2,0,0.3,0,0.4-0.1C166.1,131,166.2,130.9,166.3,130.9z M166.3,131.4v1.1l-0.1,0v-0.1c0-0.3-0.1-0.5-0.3-0.7
			c-0.2-0.2-0.4-0.3-0.7-0.3v0H166.3z"/>
		<radialGradient id="SVGID_55_" cx="170.4839" cy="134.3404" r="3.5114" gradientUnits="userSpaceOnUse">
			<stop  offset="0" style="stop-color:#004B49"/>
			<stop  offset="0.2084" style="stop-color:#049793"/>
			<stop  offset="0.4156" style="stop-color:#004B49"/>
			<stop  offset="0.624" style="stop-color:#049793"/>
			<stop  offset="0.7955" style="stop-color:#004B49"/>
			<stop  offset="1" style="stop-color:#029B98"/>
		</radialGradient>
		<path class="st50" d="M170.5,131c0.7,0,1.4,0.1,1.9,0.4c0.5,0.3,1,0.7,1.3,1.2s0.4,1.1,0.4,1.8c0,0.7-0.1,1.3-0.4,1.8
			c-0.3,0.5-0.7,0.9-1.3,1.2c-0.5,0.3-1.2,0.4-1.9,0.4c-0.7,0-1.4-0.1-1.9-0.4c-0.5-0.3-1-0.7-1.3-1.2s-0.4-1.1-0.4-1.8
			c0-0.7,0.1-1.3,0.4-1.8s0.7-0.9,1.3-1.2C169.1,131.1,169.7,131,170.5,131z M170.5,137.3c0.4,0,0.8-0.1,1.1-0.4
			c0.3-0.2,0.6-0.6,0.7-1c0.2-0.4,0.3-1,0.3-1.6c0-0.6-0.1-1.1-0.3-1.6c-0.2-0.4-0.4-0.8-0.7-1c-0.3-0.2-0.7-0.4-1.1-0.4
			c-0.4,0-0.8,0.1-1.1,0.4c-0.3,0.2-0.6,0.6-0.7,1c-0.2,0.4-0.3,1-0.3,1.6c0,0.6,0.1,1.1,0.3,1.6c0.2,0.4,0.4,0.8,0.7,1
			C169.7,137.2,170,137.3,170.5,137.3z"/>
		<radialGradient id="SVGID_56_" cx="178.701" cy="134.3404" r="3.4827" gradientUnits="userSpaceOnUse">
			<stop  offset="0" style="stop-color:#004B49"/>
			<stop  offset="0.2084" style="stop-color:#049793"/>
			<stop  offset="0.4156" style="stop-color:#004B49"/>
			<stop  offset="0.624" style="stop-color:#049793"/>
			<stop  offset="0.7955" style="stop-color:#004B49"/>
			<stop  offset="1" style="stop-color:#029B98"/>
		</radialGradient>
		<path class="st51" d="M181.7,135v1.5c-0.1,0.2-0.4,0.4-0.7,0.6c-0.3,0.2-0.6,0.3-1.1,0.5s-0.9,0.2-1.4,0.2c-0.7,0-1.3-0.1-1.8-0.4
			c-0.5-0.3-0.9-0.7-1.2-1.2c-0.3-0.5-0.4-1.1-0.4-1.8c0-0.7,0.1-1.3,0.4-1.8c0.3-0.5,0.7-0.9,1.2-1.2c0.5-0.3,1.2-0.4,1.9-0.4
			c0.3,0,0.7,0,1,0.1c0.3,0,0.6,0.1,0.9,0.2s0.5,0.2,0.7,0.3l0,1.6h-0.1c-0.1-0.4-0.3-0.8-0.5-1c-0.2-0.3-0.5-0.4-0.8-0.5
			c-0.3-0.1-0.6-0.2-0.9-0.2c-0.5,0-0.9,0.1-1.3,0.4c-0.3,0.2-0.6,0.6-0.8,1c-0.2,0.5-0.3,1-0.3,1.6c0,0.6,0.1,1.1,0.2,1.6
			c0.2,0.4,0.4,0.8,0.7,1c0.3,0.2,0.7,0.4,1.1,0.4c0.2,0,0.4,0,0.7-0.1c0.2-0.1,0.4-0.2,0.6-0.3c0.2-0.1,0.3-0.3,0.3-0.5l0-1.4
			c0-0.3-0.2-0.4-0.5-0.4h-0.1v-0.1h2.6v0.1h-0.1C181.8,134.6,181.7,134.7,181.7,135z"/>
		<radialGradient id="SVGID_57_" cx="185.2093" cy="134.257" r="2.9905" gradientUnits="userSpaceOnUse">
			<stop  offset="0" style="stop-color:#004B49"/>
			<stop  offset="0.2084" style="stop-color:#049793"/>
			<stop  offset="0.4156" style="stop-color:#004B49"/>
			<stop  offset="0.624" style="stop-color:#049793"/>
			<stop  offset="0.7955" style="stop-color:#004B49"/>
			<stop  offset="1" style="stop-color:#029B98"/>
		</radialGradient>
		<path class="st52" d="M183.3,131.8L183.3,131.8c0-0.2-0.1-0.3-0.2-0.4c-0.1-0.1-0.3-0.2-0.4-0.2h-0.1v-0.1h0.7V131.8z
			 M183.3,136.9v0.7h-0.7v-0.1h0.1c0.2,0,0.3-0.1,0.4-0.2C183.2,137.2,183.3,137.1,183.3,136.9L183.3,136.9z M184.7,131.1v6.5h-1.4
			v-6.5H184.7z M187.3,131.1v0.4h-2.6v-0.4H187.3z M186.8,134.2v0.4h-2.1v-0.4H186.8z M187.1,137.2l0.2,0.4h-2.7v-0.4H187.1z
			 M187.8,135.7l-0.4,1.9h-1.8l0.3-0.4c0.3,0,0.6-0.1,0.8-0.2c0.2-0.1,0.4-0.3,0.6-0.5C187.5,136.3,187.6,136,187.8,135.7
			L187.8,135.7z M186.8,133.3v0.9h-0.9v0c0.2,0,0.4-0.1,0.6-0.2S186.7,133.6,186.8,133.3L186.8,133.3L186.8,133.3z M186.8,134.6v0.9
			h-0.1v-0.1c0-0.2-0.1-0.4-0.2-0.6c-0.1-0.1-0.3-0.2-0.6-0.2v0H186.8z M187.3,130.9v0.3l-1.1-0.1c0.1,0,0.3,0,0.4,0
			c0.2,0,0.3,0,0.4-0.1C187.1,131,187.2,131,187.3,130.9z M187.3,131.5v1.1h-0.1v-0.1c0-0.3-0.1-0.5-0.3-0.7
			c-0.2-0.2-0.4-0.3-0.7-0.3v0H187.3z"/>
		<radialGradient id="SVGID_58_" cx="191.1565" cy="134.2524" r="3.1527" gradientUnits="userSpaceOnUse">
			<stop  offset="0" style="stop-color:#004B49"/>
			<stop  offset="0.2084" style="stop-color:#049793"/>
			<stop  offset="0.4156" style="stop-color:#004B49"/>
			<stop  offset="0.624" style="stop-color:#049793"/>
			<stop  offset="0.7955" style="stop-color:#004B49"/>
			<stop  offset="1" style="stop-color:#029B98"/>
		</radialGradient>
		<path class="st53" d="M188.2,130.9c0.1,0,0.2,0,0.3,0.1c0.1,0,0.3,0,0.4,0.1c0.2,0,0.3,0,0.4,0l-1.1,0.1V130.9z M194.1,131.1v0.4
			h-5.9v-0.4H194.1z M189.2,131.4L189.2,131.4c-0.3,0-0.5,0.1-0.7,0.3c-0.2,0.2-0.3,0.4-0.3,0.7v0.1l-0.1,0v-1.1H189.2z
			 M190.5,136.9v0.7h-0.7v-0.1h0.1c0.2,0,0.3-0.1,0.4-0.2C190.4,137.2,190.5,137.1,190.5,136.9L190.5,136.9z M191.9,131.1v6.5h-1.4
			v-6.5H191.9z M191.8,136.9L191.8,136.9c0,0.2,0.1,0.3,0.2,0.4c0.1,0.1,0.3,0.2,0.4,0.2h0.1v0.1h-0.7V136.9z M194.1,130.9v0.3
			l-1.1-0.1c0.1,0,0.3,0,0.4,0c0.2,0,0.3,0,0.4-0.1C194,131,194.1,130.9,194.1,130.9z M194.1,131.4v1.1l-0.1,0v-0.1
			c0-0.3-0.1-0.5-0.3-0.7c-0.2-0.2-0.4-0.3-0.7-0.3v0H194.1z"/>
		<radialGradient id="SVGID_59_" cx="198.234" cy="134.3403" r="3.4279" gradientUnits="userSpaceOnUse">
			<stop  offset="0" style="stop-color:#004B49"/>
			<stop  offset="0.2084" style="stop-color:#049793"/>
			<stop  offset="0.4156" style="stop-color:#004B49"/>
			<stop  offset="0.624" style="stop-color:#049793"/>
			<stop  offset="0.7955" style="stop-color:#004B49"/>
			<stop  offset="1" style="stop-color:#029B98"/>
		</radialGradient>
		<path class="st54" d="M195.4,131.8L195.4,131.8c0-0.2-0.1-0.3-0.2-0.4c-0.1-0.1-0.3-0.2-0.4-0.2h-0.1v-0.1h0.7V131.8z
			 M195.4,136.9v0.7h-0.7v-0.1h0.1c0.2,0,0.3-0.1,0.4-0.2C195.3,137.2,195.3,137.1,195.4,136.9L195.4,136.9z M196.7,131.1v6.5h-1.4
			v-6.5H196.7z M199.8,134.2v0.4h-3.2v-0.4H199.8z M196.7,131.8v-0.7h0.7v0.1c0,0,0,0-0.1,0c-0.2,0-0.3,0.1-0.4,0.2
			C196.8,131.5,196.7,131.6,196.7,131.8L196.7,131.8z M196.7,136.9L196.7,136.9c0,0.2,0.1,0.3,0.2,0.4c0.1,0.1,0.3,0.2,0.4,0.2
			c0.1,0,0.1,0,0.1,0v0.1h-0.7V136.9z M199.8,131.8L199.8,131.8c0-0.2-0.1-0.3-0.2-0.4c-0.1-0.1-0.3-0.2-0.4-0.2c-0.1,0-0.1,0-0.1,0
			v-0.1h0.7V131.8z M199.8,136.9v0.7H199v-0.1c0,0,0,0,0.1,0c0.2,0,0.3-0.1,0.4-0.2C199.7,137.2,199.7,137.1,199.8,136.9
			L199.8,136.9z M201.1,131.1v6.5h-1.4v-6.5H201.1z M201.1,131.8v-0.7h0.7v0.1h-0.1c-0.2,0-0.3,0.1-0.4,0.2
			C201.2,131.5,201.1,131.6,201.1,131.8L201.1,131.8z M201.1,136.9L201.1,136.9c0,0.2,0.1,0.3,0.2,0.4c0.1,0.1,0.3,0.2,0.4,0.2h0.1
			v0.1h-0.7V136.9z"/>
		<radialGradient id="SVGID_60_" cx="205.2285" cy="134.257" r="2.9905" gradientUnits="userSpaceOnUse">
			<stop  offset="0" style="stop-color:#004B49"/>
			<stop  offset="0.2084" style="stop-color:#049793"/>
			<stop  offset="0.4156" style="stop-color:#004B49"/>
			<stop  offset="0.624" style="stop-color:#049793"/>
			<stop  offset="0.7955" style="stop-color:#004B49"/>
			<stop  offset="1" style="stop-color:#029B98"/>
		</radialGradient>
		<path class="st55" d="M203.4,131.8L203.4,131.8c0-0.2-0.1-0.3-0.2-0.4c-0.1-0.1-0.3-0.2-0.4-0.2h-0.1v-0.1h0.7V131.8z
			 M203.4,136.9v0.7h-0.7v-0.1h0.1c0.2,0,0.3-0.1,0.4-0.2C203.3,137.2,203.3,137.1,203.4,136.9L203.4,136.9z M204.7,131.1v6.5h-1.4
			v-6.5H204.7z M207.3,131.1v0.4h-2.6v-0.4H207.3z M206.8,134.2v0.4h-2.1v-0.4H206.8z M207.2,137.2l0.2,0.4h-2.7v-0.4H207.2z
			 M207.8,135.7l-0.4,1.9h-1.8l0.3-0.4c0.3,0,0.6-0.1,0.8-0.2c0.2-0.1,0.4-0.3,0.6-0.5C207.5,136.3,207.6,136,207.8,135.7
			L207.8,135.7z M206.8,133.3v0.9h-0.9v0c0.2,0,0.4-0.1,0.6-0.2S206.7,133.6,206.8,133.3L206.8,133.3L206.8,133.3z M206.8,134.6v0.9
			h-0.1v-0.1c0-0.2-0.1-0.4-0.2-0.6c-0.1-0.1-0.3-0.2-0.6-0.2v0H206.8z M207.3,130.9v0.3l-1.1-0.1c0.1,0,0.3,0,0.4,0
			c0.2,0,0.3,0,0.4-0.1C207.1,131,207.2,131,207.3,130.9z M207.3,131.5v1.1h-0.1v-0.1c0-0.3-0.1-0.5-0.3-0.7
			c-0.2-0.2-0.4-0.3-0.7-0.3v0H207.3z"/>
		<radialGradient id="SVGID_61_" cx="211.9446" cy="134.3403" r="3.3459" gradientUnits="userSpaceOnUse">
			<stop  offset="0" style="stop-color:#004B49"/>
			<stop  offset="0.2084" style="stop-color:#049793"/>
			<stop  offset="0.4156" style="stop-color:#004B49"/>
			<stop  offset="0.624" style="stop-color:#049793"/>
			<stop  offset="0.7955" style="stop-color:#004B49"/>
			<stop  offset="1" style="stop-color:#029B98"/>
		</radialGradient>
		<path class="st56" d="M209.2,131.8L209.2,131.8c0-0.2-0.1-0.3-0.2-0.4c-0.1-0.1-0.3-0.2-0.4-0.2c0,0,0,0-0.1,0c0,0-0.1,0-0.1,0
			v-0.1h0.7V131.8z M209.2,136.9v0.7h-0.7v-0.1c0,0,0,0,0.1,0c0,0,0.1,0,0.1,0c0.2,0,0.3-0.1,0.4-0.2
			C209.1,137.2,209.2,137.1,209.2,136.9L209.2,136.9z M210.6,131.1v6.5h-1.4v-6.5H210.6z M211.7,131.1c0.3,0,0.5,0,0.8,0.1
			c0.3,0.1,0.5,0.2,0.7,0.3c0.2,0.1,0.4,0.3,0.5,0.5c0.1,0.2,0.2,0.5,0.2,0.8c0,0.3-0.1,0.5-0.2,0.8c-0.1,0.3-0.3,0.5-0.5,0.7
			c-0.2,0.2-0.5,0.3-0.9,0.3c0.2,0.1,0.4,0.2,0.5,0.3c0.2,0.2,0.3,0.3,0.4,0.5c0,0,0,0.1,0.1,0.2c0.1,0.1,0.1,0.2,0.2,0.4
			c0.1,0.1,0.2,0.3,0.3,0.4s0.2,0.3,0.3,0.4c0.1,0.2,0.3,0.3,0.4,0.4c0.1,0.1,0.2,0.2,0.4,0.2c0.1,0,0.3,0.1,0.4,0.1v0.1h-0.9
			c-0.3,0-0.6,0-0.9-0.1c-0.3-0.1-0.5-0.2-0.7-0.3c-0.2-0.1-0.4-0.3-0.5-0.6c0-0.1-0.1-0.2-0.2-0.3c-0.1-0.1-0.1-0.2-0.2-0.4
			c-0.1-0.1-0.1-0.3-0.2-0.4s-0.1-0.2-0.2-0.3c0-0.1-0.1-0.2-0.1-0.2c-0.1-0.2-0.2-0.3-0.3-0.4c-0.1-0.1-0.2-0.2-0.3-0.2v-0.1
			c0,0,0.1,0,0.1,0c0.1,0,0.1,0,0.2,0c0.2,0,0.3,0,0.5-0.1c0.2-0.1,0.3-0.2,0.4-0.3c0.1-0.2,0.2-0.4,0.3-0.6c0-0.1,0-0.1,0-0.2
			c0-0.1,0-0.2,0-0.3c0-0.4-0.1-0.8-0.3-1c-0.2-0.2-0.5-0.3-0.8-0.3c-0.1,0-0.2,0-0.3,0c-0.1,0-0.2,0-0.3,0c-0.1,0-0.1,0-0.2,0
			c0,0,0,0,0-0.1c0-0.1,0-0.2-0.1-0.3H211.7z M210.6,136.9L210.6,136.9c0,0.2,0.1,0.3,0.2,0.4c0.1,0.1,0.3,0.2,0.4,0.2
			c0,0,0,0,0.1,0v0.1h-0.7V136.9z"/>
		<radialGradient id="SVGID_62_" cx="219.0087" cy="134.3358" r="3.5571" gradientUnits="userSpaceOnUse">
			<stop  offset="0" style="stop-color:#004B49"/>
			<stop  offset="0.2084" style="stop-color:#049793"/>
			<stop  offset="0.4156" style="stop-color:#004B49"/>
			<stop  offset="0.624" style="stop-color:#049793"/>
			<stop  offset="0.7955" style="stop-color:#004B49"/>
			<stop  offset="1" style="stop-color:#029B98"/>
		</radialGradient>
		<path class="st57" d="M216,136.9v0.7h-0.8v-0.1c0.1,0,0.2,0,0.2,0c0.2,0,0.3-0.1,0.4-0.2C216,137.2,216,137.1,216,136.9L216,136.9
			z M216,131l1.3,1.4l0,5.2H216v-5.5C216,131.8,216,131.4,216,131L216,131z M216,131l5.9,5.6l0.1,1.1l-5.9-5.6L216,131z
			 M217.3,136.9c0,0.2,0.1,0.3,0.2,0.4c0.1,0.1,0.2,0.2,0.4,0.2c0,0,0.1,0,0.2,0v0.1h-0.8L217.3,136.9L217.3,136.9z M219.9,131.1
			h0.8v0.7h0c0-0.2-0.1-0.3-0.2-0.4c-0.1-0.1-0.2-0.2-0.4-0.2C220,131.2,219.9,131.2,219.9,131.1L219.9,131.1z M222,131.1v5.4
			c0,0.2,0,0.4,0,0.6c0,0.2,0,0.4,0.1,0.6H222l-1.3-1.5v-5.1H222z M222.7,131.1L222.7,131.1l-0.2,0.1c-0.2,0-0.3,0.1-0.4,0.2
			c-0.1,0.1-0.2,0.2-0.2,0.4h0v-0.7H222.7z"/>
		<radialGradient id="SVGID_63_" cx="225.8316" cy="134.257" r="2.9905" gradientUnits="userSpaceOnUse">
			<stop  offset="0" style="stop-color:#004B49"/>
			<stop  offset="0.2084" style="stop-color:#049793"/>
			<stop  offset="0.4156" style="stop-color:#004B49"/>
			<stop  offset="0.624" style="stop-color:#049793"/>
			<stop  offset="0.7955" style="stop-color:#004B49"/>
			<stop  offset="1" style="stop-color:#029B98"/>
		</radialGradient>
		<path class="st58" d="M224,131.8L224,131.8c0-0.2-0.1-0.3-0.2-0.4c-0.1-0.1-0.3-0.2-0.4-0.2h-0.1v-0.1h0.7V131.8z M224,136.9v0.7
			h-0.7v-0.1h0.1c0.2,0,0.3-0.1,0.4-0.2C223.9,137.2,223.9,137.1,224,136.9L224,136.9z M225.3,131.1v6.5h-1.4v-6.5H225.3z
			 M227.9,131.1v0.4h-2.6v-0.4H227.9z M227.4,134.2v0.4h-2.1v-0.4H227.4z M227.8,137.2l0.2,0.4h-2.7v-0.4H227.8z M228.4,135.7
			l-0.4,1.9h-1.8l0.3-0.4c0.3,0,0.6-0.1,0.8-0.2c0.2-0.1,0.4-0.3,0.6-0.5C228.1,136.3,228.3,136,228.4,135.7L228.4,135.7z
			 M227.4,133.3v0.9h-0.9v0c0.2,0,0.4-0.1,0.6-0.2S227.3,133.6,227.4,133.3L227.4,133.3L227.4,133.3z M227.4,134.6v0.9h-0.1v-0.1
			c0-0.2-0.1-0.4-0.2-0.6c-0.1-0.1-0.3-0.2-0.6-0.2v0H227.4z M227.9,130.9v0.3l-1.1-0.1c0.1,0,0.3,0,0.4,0c0.2,0,0.3,0,0.4-0.1
			C227.7,131,227.8,131,227.9,130.9z M227.9,131.5v1.1h-0.1v-0.1c0-0.3-0.1-0.5-0.3-0.7c-0.2-0.2-0.4-0.3-0.7-0.3v0H227.9z"/>
		<radialGradient id="SVGID_64_" cx="231.3814" cy="134.3404" r="2.8605" gradientUnits="userSpaceOnUse">
			<stop  offset="0" style="stop-color:#004B49"/>
			<stop  offset="0.2084" style="stop-color:#049793"/>
			<stop  offset="0.4156" style="stop-color:#004B49"/>
			<stop  offset="0.624" style="stop-color:#049793"/>
			<stop  offset="0.7955" style="stop-color:#004B49"/>
			<stop  offset="1" style="stop-color:#029B98"/>
		</radialGradient>
		<path class="st59" d="M231.3,131c0.1,0,0.3,0,0.5,0c0.2,0,0.4,0,0.6,0.1c0.2,0,0.4,0,0.5,0.1c0.1,0,0.2,0,0.3,0.1l-0.1,1.3h-0.1
			c0-0.3-0.1-0.6-0.4-0.8c-0.2-0.2-0.6-0.3-0.9-0.3c-0.4,0-0.6,0.1-0.9,0.3s-0.3,0.4-0.3,0.6c0,0.2,0.1,0.3,0.2,0.5
			c0.1,0.1,0.3,0.3,0.5,0.4l1.8,1.1c0.3,0.2,0.5,0.4,0.6,0.6c0.1,0.3,0.2,0.6,0.2,0.9c0,0.6-0.3,1.1-0.7,1.4c-0.4,0.3-1,0.5-1.8,0.5
			c-0.3,0-0.5,0-0.8-0.1c-0.3,0-0.5-0.1-0.7-0.2c-0.2-0.1-0.4-0.2-0.5-0.3c0-0.1-0.1-0.3-0.1-0.5c0-0.2,0-0.4,0.1-0.6
			c0.1-0.2,0.1-0.4,0.2-0.5h0.1c0,0.3,0,0.6,0.2,0.9c0.1,0.3,0.3,0.5,0.6,0.6c0.3,0.2,0.6,0.2,1,0.2c0.4,0,0.7-0.1,0.9-0.3
			s0.3-0.4,0.3-0.7c0-0.2-0.1-0.4-0.2-0.5c-0.1-0.2-0.3-0.3-0.6-0.4l-1.6-1.1c-0.3-0.2-0.6-0.4-0.7-0.7c-0.1-0.3-0.2-0.6-0.2-0.9
			c0-0.3,0.1-0.6,0.3-0.8c0.2-0.2,0.4-0.4,0.7-0.6C230.5,131,230.9,131,231.3,131z M233.1,131.1l0,0.2H232v-0.2H233.1z"/>
		<radialGradient id="SVGID_65_" cx="236.736" cy="134.3404" r="2.8605" gradientUnits="userSpaceOnUse">
			<stop  offset="0" style="stop-color:#004B49"/>
			<stop  offset="0.2084" style="stop-color:#049793"/>
			<stop  offset="0.4156" style="stop-color:#004B49"/>
			<stop  offset="0.624" style="stop-color:#049793"/>
			<stop  offset="0.7955" style="stop-color:#004B49"/>
			<stop  offset="1" style="stop-color:#029B98"/>
		</radialGradient>
		<path class="st60" d="M236.6,131c0.1,0,0.3,0,0.5,0c0.2,0,0.4,0,0.6,0.1c0.2,0,0.4,0,0.5,0.1c0.1,0,0.2,0,0.3,0.1l-0.1,1.3h-0.1
			c0-0.3-0.1-0.6-0.4-0.8c-0.2-0.2-0.6-0.3-0.9-0.3c-0.4,0-0.6,0.1-0.9,0.3c-0.2,0.2-0.3,0.4-0.3,0.6c0,0.2,0.1,0.3,0.2,0.5
			c0.1,0.1,0.3,0.3,0.5,0.4l1.8,1.1c0.3,0.2,0.5,0.4,0.6,0.6c0.1,0.3,0.2,0.6,0.2,0.9c0,0.6-0.3,1.1-0.7,1.4c-0.4,0.3-1,0.5-1.8,0.5
			c-0.3,0-0.5,0-0.8-0.1c-0.3,0-0.5-0.1-0.7-0.2c-0.2-0.1-0.4-0.2-0.5-0.3c0-0.1-0.1-0.3-0.1-0.5c0-0.2,0-0.4,0.1-0.6
			c0.1-0.2,0.1-0.4,0.2-0.5h0.1c0,0.3,0,0.6,0.2,0.9c0.1,0.3,0.3,0.5,0.6,0.6c0.3,0.2,0.6,0.2,1,0.2c0.4,0,0.7-0.1,0.9-0.3
			s0.3-0.4,0.3-0.7c0-0.2-0.1-0.4-0.2-0.5c-0.1-0.2-0.3-0.3-0.6-0.4l-1.6-1.1c-0.3-0.2-0.6-0.4-0.7-0.7c-0.1-0.3-0.2-0.6-0.2-0.9
			c0-0.3,0.1-0.6,0.3-0.8c0.2-0.2,0.4-0.4,0.7-0.6C235.9,131,236.2,131,236.6,131z M238.4,131.1l0,0.2h-1.1v-0.2H238.4z"/>
	</g>
</g>
</svg>
